if (_typeface_js && _typeface_js.loadFace) _typeface_js.loadFace({"glyphs":{"S":{"x_min":26,"x_max":754,"ha":821,"o":"m 754 291 q 648 69 754 151 q 387 -8 548 -8 q 182 21 269 -8 q 26 122 96 50 l 151 247 q 255 183 195 202 q 389 164 316 164 q 565 286 565 164 q 534 369 565 340 q 499 390 520 381 q 446 404 478 400 l 327 420 q 135 502 201 438 q 65 697 65 573 q 157 914 65 831 q 409 997 249 997 q 589 970 513 997 q 728 881 665 944 l 606 761 q 512 814 565 799 q 403 829 460 829 q 289 794 328 829 q 251 704 251 759 q 257 665 251 681 q 280 633 263 648 q 371 594 313 602 l 488 577 q 677 501 613 559 q 735 411 717 463 q 754 291 754 359 "},"¦":{"x_min":153,"x_max":334,"ha":490,"o":"m 334 605 l 153 605 l 153 1092 l 334 1092 l 334 605 m 334 -103 l 153 -103 l 153 383 l 334 383 l 334 -103 "},"/":{"x_min":-0.15625,"x_max":565.140625,"ha":560,"o":"m 565 1092 l 169 -103 l 0 -102 l 395 1092 l 565 1092 "},"y":{"x_min":4.5625,"x_max":679.5625,"ha":686,"o":"m 679 724 l 369 -116 q 345 -170 357 -149 q 315 -209 333 -191 q 246 -251 286 -238 q 160 -265 207 -265 l 89 -265 l 89 -102 l 130 -102 q 188 -88 169 -102 q 221 -36 207 -75 l 251 52 l 4 724 l 194 724 l 344 276 l 489 724 l 679 724 "},"≈":{"x_min":51.390625,"x_max":790.28125,"ha":842,"o":"m 790 545 q 675 453 726 481 q 561 426 623 426 q 398 472 484 426 q 339 498 363 490 q 284 506 315 506 q 227 494 252 506 q 165 448 201 483 l 51 561 q 166 653 116 626 q 279 681 216 681 q 441 634 355 681 q 500 608 475 616 q 554 600 525 600 q 612 611 587 600 q 675 659 637 622 l 790 545 m 790 231 q 675 139 725 166 q 562 112 625 112 q 400 158 486 112 q 341 184 366 176 q 287 193 316 193 q 229 181 254 193 q 166 133 204 170 l 51 247 q 168 339 116 312 q 281 367 219 367 q 443 320 356 367 q 502 294 477 302 q 556 287 526 287 q 614 298 588 287 q 676 345 640 309 l 790 231 "},"Ž":{"x_min":54.5625,"x_max":704.5625,"ha":761,"o":"m 704 0 l 54 0 l 54 155 l 476 817 l 72 817 l 72 989 l 704 989 l 704 836 l 280 172 l 704 172 l 704 0 m 639 1320 l 456 1084 l 312 1084 l 128 1320 l 269 1320 l 384 1194 l 499 1320 l 639 1320 "},"Á":{"x_min":6.9375,"x_max":879.171875,"ha":886,"o":"m 879 0 l 677 0 l 619 175 l 268 175 l 208 0 l 6 0 l 366 989 l 518 989 l 879 0 m 568 338 l 447 697 l 322 338 l 568 338 m 643 1321 l 484 1084 l 363 1084 l 452 1321 l 643 1321 "},"g":{"x_min":71,"x_max":670,"ha":771,"o":"m 670 26 q 583 -189 670 -105 q 351 -274 496 -274 q 204 -253 264 -274 q 89 -179 144 -233 l 201 -66 q 343 -121 258 -121 q 457 -73 418 -121 q 489 29 489 -34 l 489 103 q 413 46 454 63 q 316 30 372 30 q 144 93 208 30 q 84 204 97 141 q 71 381 71 267 q 84 556 71 492 q 144 668 97 620 q 318 732 208 732 q 417 714 376 732 q 495 656 457 697 l 495 723 l 670 723 l 670 26 m 489 382 q 469 511 489 469 q 369 570 441 570 q 271 512 297 570 q 252 382 252 471 q 283 227 252 266 q 369 193 311 193 q 469 251 441 193 q 489 382 489 293 "},"²":{"x_min":59,"x_max":437,"ha":497,"o":"m 437 396 l 59 396 l 59 513 l 275 751 q 306 816 306 783 q 248 876 306 876 q 206 862 223 876 q 190 815 190 849 l 59 815 q 112 946 59 898 q 248 994 166 994 q 383 946 330 994 q 437 816 437 898 q 409 724 437 765 q 364 672 397 708 l 218 513 l 437 514 l 437 396 "},"–":{"x_min":69.4375,"x_max":684.71875,"ha":754,"o":"m 684 312 l 69 312 l 69 481 l 684 481 l 684 312 "},"ë":{"x_min":65,"x_max":695.546875,"ha":761,"o":"m 695 305 l 243 305 q 284 189 243 233 q 401 145 326 145 q 492 160 456 145 q 565 213 527 175 l 674 106 q 554 19 615 46 q 399 -8 494 -8 q 167 66 251 -8 q 65 362 65 158 q 151 634 65 536 q 380 732 237 732 q 613 633 527 732 q 695 385 695 538 l 695 305 m 518 429 q 502 504 518 466 q 455 561 486 541 q 380 582 424 582 q 305 561 336 582 q 258 504 274 541 q 243 429 243 466 l 518 429 m 615 842 l 461 842 l 461 1015 l 615 1015 l 615 842 m 308 842 l 154 842 l 154 1015 l 308 1015 l 308 842 "},"ƒ":{"x_min":15.28125,"x_max":551.390625,"ha":593,"o":"m 551 849 l 455 849 q 380 783 391 849 l 340 551 l 473 551 l 473 412 l 316 412 l 195 -265 l 15 -265 l 136 412 l 43 412 l 43 551 l 159 551 l 202 792 q 276 934 218 879 q 448 1000 344 1000 l 551 1000 l 551 849 "},"Î":{"x_min":114.671875,"x_max":625.796875,"ha":424,"o":"m 308 0 l 115 0 l 115 989 l 308 989 l 308 0 m 625 1084 l 485 1083 l 370 1211 l 255 1083 l 114 1084 l 298 1320 l 442 1320 l 625 1084 "},"e":{"x_min":65,"x_max":695.546875,"ha":761,"o":"m 695 305 l 243 305 q 284 189 243 233 q 401 145 326 145 q 492 160 456 145 q 565 213 527 175 l 674 106 q 554 19 615 46 q 399 -8 494 -8 q 167 66 251 -8 q 65 362 65 158 q 151 634 65 536 q 380 732 237 732 q 613 633 527 732 q 695 385 695 538 l 695 305 m 518 429 q 502 504 518 466 q 455 561 486 541 q 380 582 424 582 q 305 561 336 582 q 258 504 274 541 q 243 429 243 466 l 518 429 "},"Ã":{"x_min":6.9375,"x_max":879.171875,"ha":886,"o":"m 879 0 l 677 0 l 619 175 l 268 175 l 208 0 l 6 0 l 366 989 l 518 989 l 879 0 m 568 338 l 447 697 l 322 338 l 568 338 m 690 1182 q 609 1118 645 1137 q 533 1100 573 1100 q 426 1131 481 1100 q 348 1157 383 1157 q 308 1150 324 1157 q 266 1117 293 1143 l 188 1195 q 269 1259 234 1241 q 344 1278 304 1278 q 397 1271 374 1278 q 451 1246 420 1264 q 527 1221 493 1221 q 567 1227 551 1221 q 609 1261 583 1234 l 690 1182 "},"J":{"x_min":4.28125,"x_max":607,"ha":710,"o":"m 607 325 q 501 76 607 169 q 258 -8 404 -8 q 118 14 176 -8 q 4 93 59 37 l 132 220 q 182 179 162 189 q 258 164 211 164 q 414 333 414 164 l 414 989 l 607 989 l 607 325 "},"»":{"x_min":92.640625,"x_max":825.984375,"ha":872,"o":"m 825 381 l 479 37 l 478 253 l 608 381 l 478 510 l 479 726 l 825 381 m 439 381 l 93 37 l 93 252 l 224 381 l 92 510 l 93 726 l 439 381 "},"∆":{"x_min":4.171875,"x_max":876.390625,"ha":881,"o":"m 876 0 l 4 0 l 365 989 l 515 989 l 876 0 m 625 163 l 444 697 l 258 163 l 625 163 "},"©":{"x_min":83,"x_max":1089,"ha":1172,"o":"m 1089 494 q 941 139 1089 286 q 586 -8 794 -8 q 230 139 377 -8 q 83 494 83 286 q 230 849 83 702 q 586 997 377 997 q 941 849 794 997 q 1089 494 1089 702 m 968 494 q 858 773 968 662 q 585 884 748 884 q 312 772 423 884 q 202 494 202 660 q 312 216 202 328 q 585 105 423 105 q 858 215 748 105 q 968 494 968 326 m 779 294 q 695 240 738 258 q 595 222 652 222 q 419 291 487 222 q 347 494 347 365 q 417 695 347 622 q 595 768 487 768 q 693 749 651 768 q 779 694 735 731 l 701 617 q 649 650 674 639 q 595 661 624 661 q 498 616 531 661 q 465 494 465 572 q 497 372 465 416 q 595 328 530 328 q 701 372 648 328 l 779 294 "},"˘":{"x_min":119.4375,"x_max":575,"ha":694,"o":"m 575 1031 q 506 869 575 925 q 348 821 447 821 q 188 869 250 821 q 119 1031 119 925 l 241 1031 q 276 968 247 989 q 348 947 305 947 q 420 967 391 947 q 454 1031 448 987 l 575 1031 "},"≥":{"x_min":197,"x_max":1168,"ha":1426,"o":"m 1168 96 l 1006 -65 l 1010 572 l 317 -118 l 197 1 l 888 693 l 249 690 l 410 851 l 1168 851 l 1168 96 "},"ò":{"x_min":71,"x_max":684,"ha":754,"o":"m 684 362 q 667 193 684 254 q 601 80 650 132 q 508 16 564 40 q 376 -8 453 -8 q 246 16 301 -8 q 153 80 190 40 q 88 194 105 129 q 71 362 71 258 q 87 530 71 469 q 153 643 104 591 q 240 705 190 683 q 376 732 300 732 q 513 705 451 732 q 601 643 564 683 q 666 529 649 594 q 684 362 684 465 m 503 362 q 496 471 503 433 q 461 537 489 509 q 376 569 429 569 q 293 537 325 569 q 260 470 268 512 q 252 362 252 427 q 261 242 252 275 q 293 186 271 209 q 376 155 325 155 q 461 186 429 155 q 494 254 486 211 q 503 362 503 296 m 448 838 l 327 838 l 169 1075 l 359 1075 l 448 838 "},"^":{"x_min":86.515625,"x_max":747.59375,"ha":836,"o":"m 747 540 l 558 540 l 417 801 l 275 540 l 86 540 l 333 999 l 500 999 l 747 540 "},"«":{"x_min":47.015625,"x_max":781.21875,"ha":872,"o":"m 780 37 l 432 381 l 780 726 l 780 510 l 646 382 l 781 253 l 780 37 m 392 37 l 47 381 l 392 726 l 393 510 l 263 381 l 392 252 l 392 37 "},"D":{"x_min":115,"x_max":833,"ha":915,"o":"m 833 498 l 833 434 q 819 254 833 315 q 733 94 798 159 q 618 24 687 48 q 471 0 549 0 l 115 0 l 115 989 l 471 989 q 617 966 551 989 q 733 894 684 943 q 819 738 798 829 q 833 561 833 679 l 833 498 m 640 498 q 632 670 640 618 q 599 754 624 722 q 538 801 573 786 q 453 817 503 817 l 308 817 l 308 172 l 453 172 q 598 233 548 172 q 632 320 624 265 q 640 498 640 374 "},"∙":{"x_min":94,"x_max":301,"ha":396,"o":"m 301 294 l 94 294 l 94 500 l 301 500 l 301 294 "},"ł":{"x_min":41,"x_max":428.5,"ha":467,"o":"m 428 0 l 325 0 q 166 63 221 0 q 116 206 116 120 l 116 419 l 41 373 l 41 525 l 116 572 l 116 989 l 297 989 l 297 680 l 379 731 l 379 580 l 297 527 l 297 218 q 311 168 297 184 q 359 153 326 153 l 428 153 l 428 0 "},"ÿ":{"x_min":4.5625,"x_max":679.5625,"ha":686,"o":"m 679 724 l 369 -116 q 345 -170 357 -149 q 315 -209 333 -191 q 246 -251 286 -238 q 160 -265 207 -265 l 89 -265 l 89 -102 l 130 -102 q 188 -88 169 -102 q 221 -36 207 -75 l 251 52 l 4 724 l 194 724 l 344 276 l 489 724 l 679 724 m 569 842 l 415 842 l 415 1015 l 569 1015 l 569 842 m 262 842 l 108 842 l 108 1015 l 262 1015 l 262 842 "},"Ł":{"x_min":51.390625,"x_max":781.953125,"ha":824,"o":"m 781 0 l 140 0 l 140 338 l 51 281 l 51 443 l 140 500 l 140 989 l 333 989 l 333 620 l 511 733 l 511 573 l 333 461 l 333 172 l 781 172 l 781 0 "},"í":{"x_min":101,"x_max":381,"ha":382,"o":"m 282 0 l 101 0 l 101 724 l 282 724 l 282 0 m 381 1075 l 222 838 l 101 838 l 190 1075 l 381 1075 "},"ˆ":{"x_min":90.671875,"x_max":601.796875,"ha":694,"o":"m 601 838 l 461 837 l 346 965 l 231 837 l 90 838 l 274 1074 l 418 1074 l 601 838 "},"w":{"x_min":4.5625,"x_max":1047.609375,"ha":1054,"o":"m 1047 724 l 826 0 l 678 0 l 526 455 l 375 0 l 226 0 l 4 724 l 196 724 l 312 277 l 460 723 l 592 724 l 740 277 l 857 724 l 1047 724 "},"$":{"x_min":26,"x_max":793,"ha":860,"o":"m 793 291 q 710 90 793 167 q 494 -3 628 13 l 494 -159 l 354 -159 l 354 -8 q 172 23 252 -8 q 26 122 92 54 l 151 247 q 249 184 194 204 q 372 164 303 164 l 372 415 l 327 421 q 216 450 263 429 q 135 504 169 471 q 65 698 65 575 q 142 900 65 819 q 354 996 219 982 l 354 1119 l 494 1119 l 494 996 q 642 967 576 996 q 767 882 709 939 l 645 761 q 566 810 612 793 q 475 828 520 828 l 475 586 l 527 577 q 638 549 594 568 q 716 499 683 530 q 774 410 755 462 q 793 291 793 359 m 372 594 l 372 826 q 282 784 313 817 q 251 703 251 750 q 257 664 251 681 q 280 632 263 648 q 372 594 312 602 m 604 286 q 573 369 604 340 q 532 393 556 386 q 475 406 508 400 l 475 167 q 604 286 604 182 "},"∫":{"x_min":79,"x_max":602,"ha":681,"o":"m 602 854 l 533 854 q 435 755 435 854 l 435 -6 q 363 -192 435 -126 q 169 -258 291 -258 l 79 -258 l 79 -105 l 147 -105 q 246 -7 246 -105 l 246 754 q 317 941 246 875 q 511 1007 389 1007 l 602 1007 l 602 854 "},"\\":{"x_min":0.15625,"x_max":559.96875,"ha":560,"o":"m 559 -102 l 390 -102 l 0 1074 l 169 1074 l 559 -102 "},"Ì":{"x_min":115,"x_max":394.609375,"ha":424,"o":"m 308 0 l 115 0 l 115 989 l 308 989 l 308 0 m 394 1084 l 273 1084 l 115 1321 l 305 1321 l 394 1084 "},"µ":{"x_min":97,"x_max":698,"ha":800,"o":"m 698 0 l 522 0 l 522 67 q 341 -8 451 -8 q 278 11 304 -8 l 278 -265 l 97 -265 l 97 724 l 278 724 l 278 286 q 315 184 278 218 q 396 155 347 155 q 478 182 447 155 q 517 286 517 217 l 517 724 l 698 724 l 698 0 "},"Ç":{"x_min":82,"x_max":809.71875,"ha":861,"o":"m 809 304 q 683 71 784 154 q 445 -8 587 -8 q 299 19 366 -8 q 179 100 231 47 q 93 269 111 168 q 82 494 82 330 q 93 717 82 656 q 179 888 112 822 q 298 969 233 942 q 445 997 363 997 q 683 919 588 997 q 809 684 784 836 l 613 684 q 559 784 598 748 q 447 825 516 825 q 323 773 368 825 q 285 686 295 743 q 275 494 275 629 q 284 301 275 354 q 323 215 294 248 q 447 164 368 164 q 557 202 516 164 q 613 304 598 240 l 809 304 m 526 -83 l 465 -286 l 297 -286 l 393 -83 l 526 -83 "},"’":{"x_min":94,"x_max":283,"ha":379,"o":"m 283 816 l 94 672 l 94 989 l 283 989 l 283 816 "},"-":{"x_min":81.9375,"x_max":509.71875,"ha":592,"o":"m 509 312 l 81 312 l 81 481 l 509 481 l 509 312 "},"Q":{"x_min":82,"x_max":835.71875,"ha":893,"o":"m 835 59 l 735 -41 l 647 46 q 447 -8 564 -8 q 298 19 364 -8 q 179 100 233 46 q 93 269 111 168 q 82 494 82 330 q 93 717 82 656 q 179 888 112 822 q 298 969 233 942 q 447 997 362 997 q 594 969 529 997 q 714 888 660 942 q 800 719 781 822 q 813 494 813 654 q 798 257 813 320 q 751 144 784 193 l 835 59 m 620 494 q 610 687 620 636 q 571 772 600 738 q 447 825 525 825 q 375 811 407 825 q 322 772 344 797 q 284 688 293 740 q 275 494 275 636 q 283 299 275 348 q 322 216 291 250 q 447 164 368 164 q 511 182 484 164 l 424 267 l 527 368 l 601 295 q 615 374 611 322 q 620 494 620 425 "},"M":{"x_min":115,"x_max":1011,"ha":1126,"o":"m 1011 0 l 818 0 l 818 576 l 629 201 l 498 201 l 308 576 l 308 0 l 115 0 l 115 989 l 304 989 l 561 454 l 818 989 l 1011 989 l 1011 0 "},"C":{"x_min":82,"x_max":809.71875,"ha":861,"o":"m 809 304 q 683 71 784 154 q 445 -8 587 -8 q 299 19 366 -8 q 179 100 231 47 q 93 269 111 168 q 82 494 82 330 q 93 717 82 656 q 179 888 112 822 q 298 969 233 942 q 445 997 363 997 q 683 919 588 997 q 809 684 784 836 l 613 684 q 559 784 598 748 q 447 825 516 825 q 323 773 368 825 q 285 686 295 743 q 275 494 275 629 q 284 301 275 354 q 323 215 294 248 q 447 164 368 164 q 557 202 516 164 q 613 304 598 240 l 809 304 "},"œ":{"x_min":71,"x_max":1134,"ha":1199,"o":"m 1134 305 l 681 305 q 722 189 681 233 q 839 145 764 145 q 929 160 894 145 q 1001 213 964 175 l 1112 106 q 992 19 1053 46 q 837 -8 932 -8 q 701 14 764 -8 q 596 83 639 36 q 505 16 561 40 q 376 -8 450 -8 q 246 16 301 -8 q 152 80 190 40 q 88 194 105 129 q 71 362 71 258 q 87 530 71 469 q 152 643 104 591 q 240 705 190 683 q 376 732 300 732 q 507 706 451 732 q 600 636 564 680 q 818 732 679 732 q 1052 633 965 732 q 1134 385 1134 538 l 1134 305 m 955 429 q 939 506 955 470 q 893 561 924 541 q 818 582 863 582 q 742 561 774 582 q 696 506 711 541 q 681 429 681 470 l 955 429 m 503 362 q 496 471 503 433 q 461 537 489 509 q 376 569 429 569 q 293 537 325 569 q 260 470 268 512 q 252 362 252 427 q 261 242 252 275 q 293 186 271 209 q 376 155 325 155 q 461 186 429 155 q 494 254 486 211 q 503 362 503 296 "},"!":{"x_min":155,"x_max":377.21875,"ha":482,"o":"m 377 989 l 334 310 l 198 310 l 155 989 l 377 989 m 362 0 l 170 0 l 170 185 l 362 185 l 362 0 "},"ç":{"x_min":65,"x_max":627.953125,"ha":669,"o":"m 627 90 q 389 -8 533 -8 q 173 66 258 -8 q 65 362 65 162 q 172 657 65 562 q 389 732 257 732 q 627 634 534 732 l 505 513 q 450 556 477 543 q 389 569 423 569 q 285 520 325 569 q 246 362 246 472 q 285 203 246 251 q 389 155 325 155 q 505 211 452 155 l 627 90 m 451 -83 l 390 -286 l 222 -286 l 318 -83 l 451 -83 "},"È":{"x_min":115,"x_max":766.671875,"ha":840,"o":"m 766 0 l 115 0 l 115 989 l 766 989 l 766 817 l 308 817 l 308 585 l 698 585 l 698 413 l 308 413 l 308 172 l 766 172 l 766 0 m 506 1084 l 385 1084 l 227 1321 l 417 1321 l 506 1084 "},"{":{"x_min":59,"x_max":574.28125,"ha":635,"o":"m 574 -103 l 432 -103 q 277 -51 328 -103 q 219 102 219 6 l 219 304 q 193 388 219 363 q 123 414 168 414 l 59 414 l 59 575 l 123 575 q 164 581 148 575 q 195 601 181 587 q 219 684 219 625 l 219 886 q 277 1040 219 982 q 432 1092 328 1092 l 574 1092 l 574 929 l 500 929 q 420 907 441 929 q 400 820 400 885 l 400 633 q 366 531 400 566 q 303 494 346 511 q 364 458 345 477 q 400 355 400 422 l 400 168 q 420 81 400 103 q 500 60 441 60 l 574 60 l 574 -103 "},"X":{"x_min":7,"x_max":830,"ha":838,"o":"m 830 0 l 609 0 l 418 344 l 227 0 l 7 0 l 314 507 l 26 989 l 245 989 l 418 669 l 591 989 l 809 989 l 522 507 l 830 0 "},"ô":{"x_min":71,"x_max":684,"ha":754,"o":"m 684 362 q 667 193 684 254 q 601 80 650 132 q 508 16 564 40 q 376 -8 453 -8 q 246 16 301 -8 q 153 80 190 40 q 88 194 105 129 q 71 362 71 258 q 87 530 71 469 q 153 643 104 591 q 240 705 190 683 q 376 732 300 732 q 513 705 451 732 q 601 643 564 683 q 666 529 649 594 q 684 362 684 465 m 503 362 q 496 471 503 433 q 461 537 489 509 q 376 569 429 569 q 293 537 325 569 q 260 470 268 512 q 252 362 252 427 q 261 242 252 275 q 293 186 271 209 q 376 155 325 155 q 461 186 429 155 q 494 254 486 211 q 503 362 503 296 m 632 838 l 492 837 l 377 965 l 262 837 l 121 838 l 305 1074 l 449 1074 l 632 838 "},"¼":{"x_min":53,"x_max":1105.78125,"ha":1161,"o":"m 1105 79 l 1060 79 l 1060 0 l 935 0 l 935 79 l 690 79 l 690 202 l 889 592 l 1032 593 l 832 203 l 935 203 l 935 289 l 1060 289 l 1060 203 l 1105 203 l 1105 79 m 868 989 l 400 0 l 258 0 l 726 988 l 868 989 m 310 395 l 178 395 l 178 842 l 53 733 l 53 880 l 177 989 l 310 989 l 310 395 "},"#":{"x_min":83.328125,"x_max":893.0625,"ha":960,"o":"m 893 583 l 769 583 l 747 433 l 843 433 l 843 264 l 719 264 l 677 0 l 487 0 l 530 264 l 369 264 l 327 0 l 137 0 l 179 264 l 83 264 l 83 433 l 206 433 l 229 583 l 131 583 l 131 751 l 255 751 l 294 997 l 484 997 l 445 751 l 606 751 l 645 997 l 834 997 l 797 751 l 893 751 l 893 583 m 579 582 l 419 583 l 395 433 l 556 433 l 579 582 "},"Ê":{"x_min":115,"x_max":766.671875,"ha":840,"o":"m 766 0 l 115 0 l 115 989 l 766 989 l 766 817 l 308 817 l 308 585 l 698 585 l 698 413 l 308 413 l 308 172 l 766 172 l 766 0 m 684 1084 l 544 1083 l 429 1211 l 314 1083 l 173 1084 l 357 1320 l 501 1320 l 684 1084 "},")":{"x_min":75,"x_max":356,"ha":467,"o":"m 356 191 q 348 81 356 113 q 319 11 340 48 q 264 -62 297 -25 q 198 -130 253 -75 l 75 -8 q 117 34 104 20 q 153 83 139 59 q 175 200 175 120 l 175 789 q 155 902 175 868 q 118 954 136 935 q 75 997 91 981 l 197 1120 q 264 1052 251 1066 q 319 979 297 1016 q 348 895 340 942 q 356 797 356 847 l 356 191 "},"Å":{"x_min":6.9375,"x_max":879.171875,"ha":886,"o":"m 879 0 l 677 0 l 619 175 l 268 175 l 208 0 l 6 0 l 366 989 l 518 989 l 879 0 m 568 338 l 447 697 l 322 338 l 568 338 m 622 1228 q 568 1099 622 1152 q 440 1046 515 1046 q 311 1099 364 1046 q 258 1228 258 1152 q 311 1356 258 1303 q 440 1410 364 1410 q 568 1356 515 1410 q 622 1228 622 1303 m 521 1228 q 497 1285 521 1261 q 440 1309 473 1309 q 382 1285 406 1309 q 359 1228 359 1261 q 382 1171 359 1196 q 440 1146 406 1146 q 497 1169 473 1146 q 521 1228 521 1193 "},"ø":{"x_min":71,"x_max":684,"ha":754,"o":"m 684 362 q 667 193 684 254 q 602 80 650 132 q 508 16 564 40 q 376 -8 453 -8 q 299 0 333 -8 q 232 24 264 8 l 182 -61 l 72 -61 l 154 79 q 88 193 105 128 q 71 362 71 258 q 87 530 71 469 q 152 643 104 591 q 240 705 190 683 q 376 732 300 732 q 522 701 461 732 l 571 785 l 682 785 l 598 644 q 665 530 647 594 q 684 362 684 466 m 444 551 q 376 569 415 569 q 293 537 325 569 q 260 469 268 512 q 252 362 252 427 q 253 293 252 319 q 261 243 255 267 l 444 551 m 503 362 q 500 433 503 413 q 491 480 498 452 l 309 172 q 376 155 339 155 q 461 186 429 155 q 494 253 486 211 q 503 362 503 296 "},"â":{"x_min":50,"x_max":649,"ha":742,"o":"m 649 0 l 473 0 l 473 63 q 396 9 435 25 q 294 -7 357 -7 q 111 56 173 -7 q 50 219 50 119 q 109 367 50 312 q 297 429 174 429 l 468 429 l 468 465 q 436 551 468 524 q 333 579 405 579 q 253 566 280 579 q 194 519 225 553 l 79 631 q 189 710 132 688 q 340 732 246 732 q 649 476 649 732 l 649 0 m 468 266 l 468 305 l 325 305 q 224 223 224 305 q 327 140 224 140 q 394 146 370 140 q 443 176 418 152 q 468 266 468 199 m 616 838 l 476 837 l 361 965 l 246 837 l 105 838 l 289 1074 l 433 1074 l 616 838 "},"}":{"x_min":59,"x_max":574,"ha":635,"o":"m 574 414 l 510 414 q 468 407 485 414 q 438 387 452 401 q 415 304 415 363 l 415 102 q 356 -51 415 6 q 200 -103 305 -103 l 59 -103 l 59 60 l 132 60 q 213 81 192 60 q 234 168 234 103 l 234 355 q 267 457 234 422 q 330 494 286 477 q 268 530 288 511 q 234 633 234 566 l 234 820 q 213 907 234 885 q 132 929 192 929 l 59 929 l 59 1092 l 200 1092 q 356 1040 305 1092 q 415 886 415 982 l 415 684 q 439 600 415 625 q 510 575 464 575 l 574 575 l 574 414 "},"‰":{"x_min":72,"x_max":1608,"ha":1682,"o":"m 1608 182 q 1550 41 1608 91 q 1406 -8 1492 -8 q 1264 39 1318 -8 q 1205 182 1205 90 l 1205 319 q 1262 459 1205 408 q 1406 510 1320 510 q 1551 460 1494 510 q 1608 319 1608 411 l 1608 182 m 1105 182 q 1047 41 1105 91 q 904 -8 989 -8 q 762 39 816 -8 q 703 182 703 90 l 703 319 q 760 459 703 408 q 904 510 818 510 q 1048 460 991 510 q 1105 319 1105 411 l 1105 182 m 894 988 l 426 0 l 284 0 l 752 988 l 894 988 m 475 669 q 417 528 475 578 q 273 479 359 479 q 131 526 185 479 q 72 669 72 577 l 72 806 q 129 946 72 895 q 273 997 187 997 q 418 947 361 997 q 475 806 475 898 l 475 669 m 1477 186 l 1477 314 q 1406 393 1477 393 q 1336 314 1336 393 l 1336 187 q 1406 109 1336 109 q 1477 186 1477 109 m 974 187 l 974 314 q 904 393 974 393 q 834 314 834 393 l 834 187 q 904 109 834 109 q 974 187 974 109 m 344 674 l 344 801 q 273 880 344 880 q 203 801 203 880 l 203 674 q 273 596 203 596 q 344 674 344 596 "},"Ä":{"x_min":6.9375,"x_max":879.171875,"ha":886,"o":"m 879 0 l 677 0 l 619 175 l 268 175 l 208 0 l 6 0 l 366 989 l 518 989 l 879 0 m 568 338 l 447 697 l 322 338 l 568 338 m 670 1088 l 516 1088 l 516 1261 l 670 1261 l 670 1088 m 363 1088 l 209 1088 l 209 1261 l 363 1261 l 363 1088 "},"¸":{"x_min":222.21875,"x_max":451.390625,"ha":694,"o":"m 451 -83 l 390 -286 l 222 -286 l 318 -83 l 451 -83 "},"a":{"x_min":50,"x_max":649,"ha":742,"o":"m 649 0 l 473 0 l 473 63 q 396 9 435 25 q 294 -7 357 -7 q 111 56 173 -7 q 50 219 50 119 q 109 367 50 312 q 297 429 174 429 l 468 429 l 468 465 q 436 551 468 524 q 333 579 405 579 q 253 566 280 579 q 194 519 225 553 l 79 631 q 189 710 132 688 q 340 732 246 732 q 649 476 649 732 l 649 0 m 468 266 l 468 305 l 325 305 q 224 223 224 305 q 327 140 224 140 q 394 146 370 140 q 443 176 418 152 q 468 266 468 199 "},"—":{"x_min":81.9375,"x_max":1344.453125,"ha":1426,"o":"m 1344 314 l 81 314 l 81 487 l 1344 487 l 1344 314 "},"=":{"x_min":69.4375,"x_max":684.71875,"ha":754,"o":"m 684 463 l 69 463 l 69 632 l 684 632 l 684 463 m 684 161 l 69 161 l 69 330 l 684 330 l 684 161 "},"N":{"x_min":115,"x_max":872,"ha":988,"o":"m 872 0 l 699 0 l 308 606 l 308 0 l 115 0 l 115 989 l 287 989 l 679 383 l 679 989 l 872 989 l 872 0 "},"˚":{"x_min":165,"x_max":529,"ha":694,"o":"m 529 993 q 475 864 529 917 q 347 811 422 811 q 218 864 271 811 q 165 993 165 917 q 218 1121 165 1068 q 347 1175 271 1175 q 475 1121 422 1175 q 529 993 529 1068 m 428 993 q 404 1050 428 1026 q 347 1074 380 1074 q 289 1050 313 1074 q 266 993 266 1026 q 289 936 266 961 q 347 911 313 911 q 404 934 380 911 q 428 993 428 958 "},"ú":{"x_min":93,"x_max":694,"ha":796,"o":"m 694 0 l 518 0 l 518 67 q 337 -8 447 -8 q 240 8 284 -8 q 166 55 197 25 q 109 146 126 96 q 93 261 93 197 l 93 724 l 274 724 l 274 286 q 311 184 274 218 q 392 155 343 155 q 474 182 443 155 q 513 286 513 217 l 513 724 l 694 724 l 694 0 m 596 1075 l 437 838 l 316 838 l 405 1075 l 596 1075 "},"2":{"x_min":82,"x_max":683,"ha":754,"o":"m 683 0 l 82 0 l 82 162 l 450 591 q 490 651 478 624 q 502 710 502 677 q 470 800 502 766 q 383 834 439 834 q 300 807 330 834 q 263 708 263 776 l 82 708 q 166 919 82 841 q 383 997 251 997 q 599 919 516 997 q 683 709 683 841 q 656 590 683 641 q 577 483 637 553 l 301 163 l 683 163 l 683 0 "},"ü":{"x_min":93,"x_max":694,"ha":796,"o":"m 694 0 l 518 0 l 518 67 q 337 -8 447 -8 q 240 8 284 -8 q 166 55 197 25 q 109 146 126 96 q 93 261 93 197 l 93 724 l 274 724 l 274 286 q 311 184 274 218 q 392 155 343 155 q 474 182 443 155 q 513 286 513 217 l 513 724 l 694 724 l 694 0 m 623 842 l 469 842 l 469 1015 l 623 1015 l 623 842 m 316 842 l 162 842 l 162 1015 l 316 1015 l 316 842 "},"¯":{"x_min":127.78125,"x_max":566.671875,"ha":694,"o":"m 566 876 l 127 876 l 127 997 l 566 997 l 566 876 "},"Z":{"x_min":54.5625,"x_max":704.5625,"ha":761,"o":"m 704 0 l 54 0 l 54 155 l 476 817 l 72 817 l 72 989 l 704 989 l 704 836 l 280 172 l 704 172 l 704 0 "},"u":{"x_min":93,"x_max":694,"ha":796,"o":"m 694 0 l 518 0 l 518 67 q 337 -8 447 -8 q 240 8 284 -8 q 166 55 197 25 q 109 146 126 96 q 93 261 93 197 l 93 724 l 274 724 l 274 286 q 311 184 274 218 q 392 155 343 155 q 474 182 443 155 q 513 286 513 217 l 513 724 l 694 724 l 694 0 "},"":{"x_min":43,"x_max":866.609375,"ha":900,"o":"m 866 0 l 763 0 q 602 63 659 0 q 552 206 552 120 l 552 988 l 733 988 l 733 218 q 797 153 733 153 l 866 153 l 866 0 m 431 565 l 299 565 l 299 0 l 118 0 l 118 565 l 43 565 l 43 703 l 118 703 l 118 793 q 167 934 118 877 q 328 1000 224 1000 l 431 1000 l 431 847 l 362 847 q 299 781 299 847 l 299 703 l 431 703 l 431 565 "},"˜":{"x_min":95.828125,"x_max":597.21875,"ha":694,"o":"m 597 936 q 516 872 552 891 q 440 854 480 854 q 333 885 388 854 q 255 911 290 911 q 215 904 231 911 q 173 871 200 897 l 95 949 q 176 1013 141 995 q 251 1032 211 1032 q 304 1025 281 1032 q 358 1000 327 1018 q 434 975 400 975 q 474 981 458 975 q 516 1015 490 988 l 597 936 "},"Ó":{"x_min":82,"x_max":813,"ha":894,"o":"m 813 494 q 801 271 813 330 q 714 100 782 168 q 596 19 660 46 q 447 -8 532 -8 q 298 19 364 -8 q 179 100 233 46 q 93 269 111 168 q 82 494 82 330 q 93 717 82 656 q 179 888 112 822 q 298 969 233 942 q 447 997 362 997 q 594 969 529 997 q 714 888 660 942 q 800 719 781 822 q 813 494 813 654 m 620 494 q 610 687 620 636 q 571 772 600 738 q 447 825 525 825 q 375 811 407 825 q 322 772 344 797 q 284 688 293 740 q 275 494 275 636 q 283 299 275 348 q 322 216 291 250 q 447 164 368 164 q 571 216 525 164 q 609 304 599 248 q 620 494 620 359 m 650 1321 l 491 1084 l 370 1084 l 459 1321 l 650 1321 "},"k":{"x_min":101,"x_max":759.71875,"ha":776,"o":"m 759 0 l 536 0 l 358 301 l 282 215 l 282 0 l 101 0 l 101 989 l 282 989 l 282 426 l 522 723 l 740 723 l 481 431 l 759 0 "},"ˇ":{"x_min":90.671875,"x_max":601.609375,"ha":694,"o":"m 601 1074 l 418 838 l 274 838 l 90 1074 l 231 1074 l 346 948 l 461 1074 l 601 1074 "},"Ù":{"x_min":100,"x_max":828,"ha":928,"o":"m 828 339 q 724 87 828 183 q 464 -8 621 -8 q 204 87 308 -8 q 100 339 100 183 l 100 989 l 293 989 l 293 345 q 338 212 293 261 q 463 164 384 164 q 589 211 542 164 q 636 345 636 259 l 636 989 l 828 989 l 828 339 m 540 1084 l 419 1084 l 261 1321 l 451 1321 l 540 1084 "},"Ÿ":{"x_min":4,"x_max":790,"ha":794,"o":"m 790 989 l 493 405 l 493 0 l 301 0 l 301 405 l 4 989 l 213 989 l 398 590 l 580 989 l 790 989 m 626 1088 l 472 1088 l 472 1261 l 626 1261 l 626 1088 m 319 1088 l 165 1088 l 165 1261 l 319 1261 l 319 1088 "},"¢":{"x_min":65,"x_max":651.109375,"ha":693,"o":"m 651 250 q 564 181 609 206 q 462 145 520 156 l 462 0 l 323 0 l 323 145 q 138 256 205 169 q 65 508 65 352 q 138 758 65 662 q 323 870 207 847 l 323 989 l 462 989 l 462 870 q 564 836 520 861 q 651 766 609 811 l 531 650 q 443 706 488 694 l 443 309 q 488 329 467 316 q 531 366 509 343 l 651 250 m 342 312 l 342 704 q 290 668 312 695 q 257 603 268 641 q 246 508 246 565 q 256 414 246 452 q 288 348 266 376 q 342 312 310 320 "},"ß":{"x_min":101,"x_max":715,"ha":797,"o":"m 715 223 q 657 56 715 113 q 483 0 600 0 l 412 0 l 412 153 l 448 153 q 510 173 486 153 q 534 238 534 194 l 534 438 q 512 501 534 480 q 450 523 491 523 l 412 523 l 412 665 l 450 665 q 510 685 486 665 q 534 748 534 706 q 507 810 534 787 q 410 840 475 840 q 311 807 340 840 q 282 709 282 774 l 282 0 l 101 0 l 101 723 q 189 931 101 860 q 413 997 271 997 q 633 936 551 997 q 715 753 715 876 q 688 653 715 696 q 630 596 667 619 q 693 541 672 574 q 715 445 715 507 l 715 223 "},"é":{"x_min":65,"x_max":695.546875,"ha":761,"o":"m 695 305 l 243 305 q 284 189 243 233 q 401 145 326 145 q 492 160 456 145 q 565 213 527 175 l 674 106 q 554 19 615 46 q 399 -8 494 -8 q 167 66 251 -8 q 65 362 65 158 q 151 634 65 536 q 380 732 237 732 q 613 633 527 732 q 695 385 695 538 l 695 305 m 518 429 q 502 504 518 466 q 455 561 486 541 q 380 582 424 582 q 305 561 336 582 q 258 504 274 541 q 243 429 243 466 l 518 429 m 588 1075 l 429 838 l 308 838 l 397 1075 l 588 1075 "},"s":{"x_min":30,"x_max":645,"ha":696,"o":"m 645 227 q 556 50 645 112 q 338 -8 474 -8 q 175 8 234 -8 q 30 96 93 32 l 148 214 q 245 158 187 175 q 341 146 290 146 q 431 164 394 146 q 469 220 469 182 q 451 266 469 248 q 392 287 434 283 l 278 298 q 124 354 176 308 q 68 501 68 404 q 149 670 68 609 q 346 732 230 732 q 506 713 441 732 q 623 647 571 695 l 511 534 q 438 571 484 559 q 344 583 392 583 q 268 562 294 583 q 242 513 242 542 q 254 474 242 488 q 316 451 272 455 l 430 440 q 590 375 535 430 q 645 227 645 320 "},"B":{"x_min":115,"x_max":832,"ha":914,"o":"m 832 284 q 748 74 832 149 q 529 0 665 0 l 115 0 l 115 989 l 512 989 q 736 914 655 989 q 818 711 818 840 q 776 576 818 636 q 695 506 743 529 q 786 436 752 480 q 832 284 832 374 m 625 703 q 590 785 625 754 q 497 817 556 817 l 308 817 l 308 589 l 497 589 q 591 619 558 589 q 625 703 625 650 m 639 294 q 608 378 639 346 q 509 415 573 415 l 308 415 l 308 172 l 509 172 q 605 206 572 172 q 639 294 639 241 "},"…":{"x_min":94,"x_max":1080,"ha":1175,"o":"m 1080 0 l 884 0 l 884 196 l 1080 196 l 1080 0 m 684 0 l 488 0 l 488 196 l 684 196 l 684 0 m 291 0 l 94 0 l 94 196 l 291 196 l 291 0 "},"?":{"x_min":91,"x_max":676,"ha":726,"o":"m 676 719 q 658 630 676 672 q 607 545 641 588 l 505 409 q 480 339 480 378 l 480 310 l 299 310 l 299 351 q 310 426 299 394 q 351 495 322 458 l 454 627 q 483 673 471 648 q 495 720 495 699 q 465 802 495 771 q 382 834 435 834 q 301 802 330 834 q 272 719 272 770 l 91 719 q 174 921 91 845 q 382 997 257 997 q 588 924 506 997 q 676 719 676 847 m 486 0 l 293 0 l 293 185 l 486 185 l 486 0 "},"H":{"x_min":115,"x_max":836,"ha":951,"o":"m 836 0 l 643 0 l 643 414 l 308 414 l 308 0 l 115 0 l 115 989 l 308 989 l 308 585 l 643 585 l 643 989 l 836 989 l 836 0 "},"î":{"x_min":100.671875,"x_max":611.796875,"ha":382,"o":"m 282 0 l 101 0 l 101 724 l 282 724 l 282 0 m 611 838 l 471 837 l 356 965 l 241 837 l 100 838 l 284 1074 l 428 1074 l 611 838 "},"c":{"x_min":65,"x_max":627.953125,"ha":667,"o":"m 627 90 q 389 -8 533 -8 q 173 66 258 -8 q 65 362 65 162 q 172 657 65 562 q 389 732 257 732 q 627 634 534 732 l 505 513 q 450 556 477 543 q 389 569 423 569 q 285 520 325 569 q 246 362 246 472 q 285 203 246 251 q 389 155 325 155 q 505 211 452 155 l 627 90 "},"¶":{"x_min":48,"x_max":812,"ha":928,"o":"m 812 -265 l 631 -265 l 631 817 l 493 817 l 493 -265 l 312 -265 l 312 427 q 127 510 207 427 q 48 707 48 593 q 134 915 48 841 q 368 989 220 989 l 812 989 l 812 -265 "},"≠":{"x_min":69.4375,"x_max":766.671875,"ha":836,"o":"m 766 161 l 322 161 l 179 -18 l 69 67 l 145 161 l 69 161 l 69 330 l 276 330 l 384 463 l 69 463 l 69 632 l 513 632 l 656 811 l 766 725 l 690 632 l 766 632 l 766 463 l 560 463 l 451 330 l 766 330 l 766 161 "},"•":{"x_min":115.28125,"x_max":568.0625,"ha":685,"o":"m 568 463 q 502 303 568 369 q 341 237 436 237 q 181 303 247 237 q 115 463 115 369 q 181 623 115 557 q 341 690 247 690 q 502 623 436 690 q 568 463 568 557 "},"¥":{"x_min":4,"x_max":789,"ha":793,"o":"m 789 989 l 600 614 l 702 614 l 702 475 l 529 475 l 493 405 l 493 335 l 702 335 l 702 196 l 493 196 l 493 0 l 301 0 l 301 196 l 89 196 l 89 335 l 301 335 l 301 405 l 264 475 l 90 475 l 90 614 l 194 614 l 4 989 l 213 989 l 397 588 l 580 989 l 789 989 "},"(":{"x_min":111,"x_max":390.171875,"ha":467,"o":"m 390 -9 l 269 -130 q 202 -62 215 -76 q 147 10 169 -26 q 118 94 126 47 q 111 191 111 141 l 111 797 q 118 908 111 875 q 147 977 126 940 q 202 1052 169 1014 q 269 1120 213 1064 l 390 999 q 348 956 358 967 q 312 906 327 932 q 292 789 292 868 l 292 200 q 312 83 292 120 q 347 34 327 56 q 390 -9 356 23 "},"U":{"x_min":100,"x_max":828,"ha":928,"o":"m 828 339 q 724 87 828 183 q 464 -8 621 -8 q 204 87 308 -8 q 100 339 100 183 l 100 989 l 293 989 l 293 345 q 338 212 293 261 q 463 164 384 164 q 589 211 542 164 q 636 345 636 259 l 636 989 l 828 989 l 828 339 "},"◊":{"x_min":76,"x_max":807.015625,"ha":883,"o":"m 807 473 l 441 -35 l 76 473 l 441 982 l 807 473 m 603 473 l 441 701 l 279 473 l 441 245 l 603 473 "},"Ñ":{"x_min":115,"x_max":872,"ha":988,"o":"m 872 0 l 699 0 l 308 606 l 308 0 l 115 0 l 115 989 l 287 989 l 679 383 l 679 989 l 872 989 l 872 0 m 744 1182 q 663 1118 699 1137 q 587 1100 627 1100 q 480 1131 535 1100 q 402 1157 437 1157 q 362 1150 378 1157 q 320 1117 347 1143 l 242 1195 q 323 1259 288 1241 q 398 1278 358 1278 q 451 1271 428 1278 q 505 1246 474 1264 q 581 1221 547 1221 q 621 1227 605 1221 q 663 1261 637 1234 l 744 1182 "},"F":{"x_min":115,"x_max":766.671875,"ha":819,"o":"m 766 817 l 308 817 l 308 573 l 698 573 l 698 401 l 308 401 l 308 0 l 115 0 l 115 989 l 766 989 l 766 817 "},"­":{"x_min":69.4375,"x_max":684.71875,"ha":754,"o":"m 684 312 l 69 312 l 69 481 l 684 481 l 684 312 "},":":{"x_min":129,"x_max":335,"ha":429,"o":"m 335 376 l 129 376 l 129 582 l 335 582 l 335 376 m 335 0 l 129 0 l 129 206 l 335 206 l 335 0 "},"Û":{"x_min":100,"x_max":828,"ha":928,"o":"m 828 339 q 724 87 828 183 q 464 -8 621 -8 q 204 87 308 -8 q 100 339 100 183 l 100 989 l 293 989 l 293 345 q 338 212 293 261 q 463 164 384 164 q 589 211 542 164 q 636 345 636 259 l 636 989 l 828 989 l 828 339 m 718 1084 l 578 1083 l 463 1211 l 348 1083 l 207 1084 l 391 1320 l 535 1320 l 718 1084 "},"*":{"x_min":75.59375,"x_max":611,"ha":686,"o":"m 611 638 l 546 529 l 401 621 l 407 447 l 279 447 l 286 621 l 138 529 l 75 639 l 229 720 l 76 800 l 138 911 l 285 818 l 279 992 l 406 992 l 401 817 l 547 911 l 611 800 l 457 719 l 611 638 "},"†":{"x_min":79,"x_max":725,"ha":804,"o":"m 725 569 l 492 569 l 492 0 l 311 0 l 311 569 l 79 569 l 79 732 l 311 732 l 311 989 l 492 989 l 492 732 l 725 732 l 725 569 "},"∕":{"x_min":-158.9375,"x_max":449.421875,"ha":289,"o":"m 449 989 l -18 0 l -158 0 l 309 989 l 449 989 "},"°":{"x_min":76,"x_max":587,"ha":664,"o":"m 587 752 q 512 571 587 645 q 331 497 438 497 q 150 571 224 497 q 76 752 76 645 q 149 934 76 859 q 331 1010 223 1010 q 512 934 437 1010 q 587 752 587 859 m 441 752 q 409 831 441 799 q 330 864 377 864 q 253 831 284 864 q 222 752 222 798 q 253 673 222 706 q 331 641 284 641 q 409 673 377 641 q 441 752 441 705 "},"V":{"x_min":4.171875,"x_max":802.78125,"ha":807,"o":"m 802 989 l 475 0 l 330 0 l 4 989 l 204 989 l 402 344 l 601 989 l 802 989 "},"å":{"x_min":50,"x_max":649,"ha":742,"o":"m 649 0 l 473 0 l 473 63 q 396 9 435 25 q 294 -7 357 -7 q 111 56 173 -7 q 50 219 50 119 q 109 367 50 312 q 297 429 174 429 l 468 429 l 468 465 q 436 551 468 524 q 333 579 405 579 q 253 566 280 579 q 194 519 225 553 l 79 631 q 189 710 132 688 q 340 732 246 732 q 649 476 649 732 l 649 0 m 468 266 l 468 305 l 325 305 q 224 223 224 305 q 327 140 224 140 q 394 146 370 140 q 443 176 418 152 q 468 266 468 199 m 544 993 q 490 864 544 917 q 362 811 437 811 q 233 864 286 811 q 180 993 180 917 q 233 1121 180 1068 q 362 1175 286 1175 q 490 1121 437 1175 q 544 993 544 1068 m 443 993 q 419 1050 443 1026 q 362 1074 395 1074 q 304 1050 328 1074 q 281 993 281 1026 q 304 936 281 961 q 362 911 328 911 q 419 934 395 911 q 443 993 443 958 "}," ":{"x_min":0,"x_max":0,"ha":322},"0":{"x_min":76,"x_max":677,"ha":754,"o":"m 677 286 q 588 68 677 148 q 377 -8 504 -8 q 166 68 250 -8 q 76 286 76 150 l 76 702 q 166 920 76 838 q 377 997 250 997 q 586 920 503 997 q 677 702 677 838 l 677 286 m 496 288 l 496 699 q 463 797 496 760 q 377 834 431 834 q 290 797 323 834 q 257 699 257 761 l 257 288 q 290 191 257 227 q 377 155 323 155 q 463 190 431 155 q 496 288 496 225 "},"”":{"x_min":94,"x_max":575,"ha":669,"o":"m 575 816 l 386 672 l 386 989 l 575 989 l 575 816 m 282 816 l 94 672 l 94 989 l 282 989 l 282 816 "},"¾":{"x_min":59,"x_max":1145.109375,"ha":1201,"o":"m 1145 79 l 1099 79 l 1099 0 l 974 0 l 974 79 l 729 79 l 729 202 l 928 592 l 1071 593 l 871 203 l 974 203 l 974 289 l 1099 289 l 1099 203 l 1145 203 l 1145 79 m 911 988 l 444 0 l 302 0 l 770 988 l 911 988 m 451 572 q 392 434 451 483 q 255 390 339 390 q 120 431 172 390 q 59 573 59 480 l 190 573 q 255 507 190 507 q 320 576 320 507 q 301 624 320 605 q 252 643 282 643 l 234 643 l 234 756 l 252 756 q 297 773 282 756 q 313 815 313 791 q 297 860 313 844 q 255 876 281 876 q 213 860 230 876 q 197 818 197 845 l 66 818 q 120 945 66 896 q 255 994 174 994 q 390 944 337 994 q 444 819 444 895 q 426 747 444 775 q 381 702 409 719 q 428 657 411 683 q 451 572 451 622 "},"@":{"x_min":79,"x_max":972,"ha":1053,"o":"m 972 -4 l 804 0 l 804 64 q 731 9 769 26 q 637 -8 692 -8 q 462 61 527 -8 q 409 160 422 104 q 397 320 397 216 q 409 477 397 420 q 460 577 422 534 q 636 648 524 648 q 800 581 737 648 l 800 643 q 789 723 800 690 q 752 783 779 756 q 691 821 725 810 q 612 833 657 833 l 440 833 q 362 822 396 833 q 301 784 329 812 q 263 723 273 756 q 253 642 253 690 l 253 241 q 265 163 253 190 q 314 104 278 136 l 188 -20 q 102 87 126 34 q 79 231 79 140 l 79 646 q 98 799 79 737 q 165 909 117 862 q 273 975 212 956 q 426 994 334 994 l 626 994 q 777 975 716 994 q 886 910 838 957 q 953 799 934 862 q 972 646 972 737 l 972 -4 m 800 321 q 775 454 800 410 q 684 499 750 499 q 595 454 620 499 q 571 321 571 410 q 595 187 571 233 q 684 142 620 142 q 773 187 747 142 q 800 321 800 233 "},"ö":{"x_min":71,"x_max":684,"ha":754,"o":"m 684 362 q 667 193 684 254 q 601 80 650 132 q 508 16 564 40 q 376 -8 453 -8 q 246 16 301 -8 q 153 80 190 40 q 88 194 105 129 q 71 362 71 258 q 87 530 71 469 q 153 643 104 591 q 240 705 190 683 q 376 732 300 732 q 513 705 451 732 q 601 643 564 683 q 666 529 649 594 q 684 362 684 465 m 503 362 q 496 471 503 433 q 461 537 489 509 q 376 569 429 569 q 293 537 325 569 q 260 470 268 512 q 252 362 252 427 q 261 242 252 275 q 293 186 271 209 q 376 155 325 155 q 461 186 429 155 q 494 254 486 211 q 503 362 503 296 m 608 842 l 454 842 l 454 1015 l 608 1015 l 608 842 m 301 842 l 147 842 l 147 1015 l 301 1015 l 301 842 "},"i":{"x_min":98,"x_max":279,"ha":382,"o":"m 279 847 l 98 847 l 98 994 l 279 994 l 279 847 m 279 0 l 98 0 l 98 723 l 279 723 l 279 0 "},"≤":{"x_min":257,"x_max":1227.84375,"ha":1426,"o":"m 1227 1 l 1107 -118 l 416 572 l 418 -67 l 257 94 l 257 851 l 1015 851 l 1176 690 l 537 693 l 1227 1 "},"Õ":{"x_min":82,"x_max":813,"ha":894,"o":"m 813 494 q 801 271 813 330 q 714 100 782 168 q 596 19 660 46 q 447 -8 532 -8 q 298 19 364 -8 q 179 100 233 46 q 93 269 111 168 q 82 494 82 330 q 93 717 82 656 q 179 888 112 822 q 298 969 233 942 q 447 997 362 997 q 594 969 529 997 q 714 888 660 942 q 800 719 781 822 q 813 494 813 654 m 620 494 q 610 687 620 636 q 571 772 600 738 q 447 825 525 825 q 375 811 407 825 q 322 772 344 797 q 284 688 293 740 q 275 494 275 636 q 283 299 275 348 q 322 216 291 250 q 447 164 368 164 q 571 216 525 164 q 609 304 599 248 q 620 494 620 359 m 697 1182 q 616 1118 652 1137 q 540 1100 580 1100 q 433 1131 488 1100 q 355 1157 390 1157 q 315 1150 331 1157 q 273 1117 300 1143 l 195 1195 q 276 1259 241 1241 q 351 1278 311 1278 q 404 1271 381 1278 q 458 1246 427 1264 q 534 1221 500 1221 q 574 1227 558 1221 q 616 1261 590 1234 l 697 1182 "},"þ":{"x_min":101,"x_max":707,"ha":781,"o":"m 707 362 q 697 197 707 254 q 633 56 682 105 q 457 -8 568 -8 q 358 7 398 -8 q 282 64 318 23 l 282 -265 l 101 -265 l 101 989 l 282 989 l 282 660 q 358 715 316 698 q 457 731 400 731 q 633 666 568 731 q 688 565 669 630 q 707 362 707 500 m 526 362 q 506 510 526 467 q 404 570 478 570 q 302 511 329 570 q 282 362 282 467 q 301 213 282 256 q 404 154 327 154 q 505 213 477 154 q 526 362 526 259 "},"]":{"x_min":58.328125,"x_max":415,"ha":525,"o":"m 415 -103 l 58 -103 l 58 58 l 234 58 l 234 931 l 58 931 l 58 1092 l 415 1092 l 415 -103 "},"m":{"x_min":101,"x_max":1124,"ha":1217,"o":"m 1124 0 l 943 0 l 943 437 q 905 539 943 505 q 823 569 873 569 q 743 541 775 569 q 703 441 703 506 l 703 0 l 522 0 l 522 437 q 484 539 522 505 q 402 569 452 569 q 320 541 351 569 q 282 437 282 506 l 282 0 l 101 0 l 101 723 l 277 723 l 277 656 q 359 712 311 693 q 457 732 406 732 q 650 640 583 732 q 866 732 737 732 q 967 715 921 732 q 1044 668 1014 698 q 1105 575 1086 626 q 1124 462 1124 525 l 1124 0 "},"8":{"x_min":61,"x_max":694,"ha":754,"o":"m 694 287 q 604 70 694 148 q 377 -8 514 -8 q 154 66 240 -8 q 61 287 61 147 q 103 430 61 368 q 185 509 132 475 q 111 584 139 541 q 74 715 74 643 q 161 919 74 842 q 377 997 248 997 q 593 920 506 997 q 680 715 680 844 q 644 586 680 643 q 569 509 616 543 q 651 430 620 475 q 694 287 694 368 m 499 709 q 464 798 499 762 q 377 834 430 834 q 290 798 325 834 q 255 709 255 763 q 290 620 255 655 q 377 585 325 585 q 465 620 431 585 q 499 709 499 655 m 513 290 q 474 387 513 347 q 377 428 435 428 q 281 388 320 428 q 242 290 242 349 q 280 193 242 232 q 377 155 319 155 q 474 193 435 155 q 513 290 513 232 "},"ž":{"x_min":50.59375,"x_max":602.78125,"ha":664,"o":"m 602 0 l 51 0 l 50 138 l 371 561 l 69 561 l 69 724 l 602 724 l 602 586 l 277 163 l 602 163 l 602 0 m 590 1074 l 407 838 l 263 838 l 79 1074 l 220 1074 l 335 948 l 450 1074 l 590 1074 "},"R":{"x_min":115,"x_max":863.609375,"ha":908,"o":"m 863 0 l 639 0 l 446 394 l 308 394 l 308 0 l 115 0 l 115 989 l 502 989 q 738 900 649 989 q 823 685 823 815 q 768 517 823 588 q 642 425 720 453 l 863 0 m 630 686 q 591 781 630 745 q 489 817 553 817 l 308 817 l 308 555 l 489 555 q 591 591 552 555 q 630 686 630 627 "},"á":{"x_min":50,"x_max":649,"ha":742,"o":"m 649 0 l 473 0 l 473 63 q 396 9 435 25 q 294 -7 357 -7 q 111 56 173 -7 q 50 219 50 119 q 109 367 50 312 q 297 429 174 429 l 468 429 l 468 465 q 436 551 468 524 q 333 579 405 579 q 253 566 280 579 q 194 519 225 553 l 79 631 q 189 710 132 688 q 340 732 246 732 q 649 476 649 732 l 649 0 m 468 266 l 468 305 l 325 305 q 224 223 224 305 q 327 140 224 140 q 394 146 370 140 q 443 176 418 152 q 468 266 468 199 m 565 1075 l 406 838 l 285 838 l 374 1075 l 565 1075 "},"×":{"x_min":67.90625,"x_max":686.09375,"ha":754,"o":"m 686 201 l 572 87 l 377 283 l 181 87 l 67 201 l 263 397 l 68 593 l 181 707 l 377 511 l 572 707 l 686 593 l 490 397 l 686 201 "},"o":{"x_min":71,"x_max":684,"ha":754,"o":"m 684 362 q 667 193 684 254 q 601 80 650 132 q 508 16 564 40 q 376 -8 453 -8 q 246 16 301 -8 q 153 80 190 40 q 88 194 105 129 q 71 362 71 258 q 87 530 71 469 q 153 643 104 591 q 240 705 190 683 q 376 732 300 732 q 513 705 451 732 q 601 643 564 683 q 666 529 649 594 q 684 362 684 465 m 503 362 q 496 471 503 433 q 461 537 489 509 q 376 569 429 569 q 293 537 325 569 q 260 470 268 512 q 252 362 252 427 q 261 242 252 275 q 293 186 271 209 q 376 155 325 155 q 461 186 429 155 q 494 254 486 211 q 503 362 503 296 "},"5":{"x_min":79,"x_max":686,"ha":754,"o":"m 686 333 q 667 184 686 244 q 598 72 649 123 q 507 13 560 35 q 380 -8 454 -8 q 251 14 308 -8 q 159 71 194 36 q 98 166 117 112 q 79 277 79 220 l 259 277 q 295 185 267 216 q 380 155 323 155 q 466 186 434 155 q 495 245 486 207 q 505 333 505 283 q 477 467 505 423 q 383 511 449 511 q 301 486 333 511 q 264 431 275 465 l 100 431 l 100 989 l 663 989 l 663 826 l 264 826 l 264 614 q 325 649 286 634 q 412 664 363 664 q 518 646 472 664 q 597 597 565 629 q 670 471 649 544 q 686 333 686 416 "},"õ":{"x_min":71,"x_max":684,"ha":754,"o":"m 684 362 q 667 193 684 254 q 601 80 650 132 q 508 16 564 40 q 376 -8 453 -8 q 246 16 301 -8 q 153 80 190 40 q 88 194 105 129 q 71 362 71 258 q 87 530 71 469 q 153 643 104 591 q 240 705 190 683 q 376 732 300 732 q 513 705 451 732 q 601 643 564 683 q 666 529 649 594 q 684 362 684 465 m 503 362 q 496 471 503 433 q 461 537 489 509 q 376 569 429 569 q 293 537 325 569 q 260 470 268 512 q 252 362 252 427 q 261 242 252 275 q 293 186 271 209 q 376 155 325 155 q 461 186 429 155 q 494 254 486 211 q 503 362 503 296 m 628 936 q 547 872 583 891 q 471 854 511 854 q 364 885 419 854 q 286 911 321 911 q 246 904 262 911 q 204 871 231 897 l 126 949 q 207 1013 172 995 q 282 1032 242 1032 q 335 1025 312 1032 q 389 1000 358 1018 q 465 975 431 975 q 505 981 489 975 q 547 1015 521 988 l 628 936 "},"7":{"x_min":69,"x_max":698.609375,"ha":754,"o":"m 698 826 l 377 0 l 181 0 l 502 826 l 241 826 l 241 670 l 69 670 l 69 989 l 698 989 l 698 826 "},"K":{"x_min":115,"x_max":915.28125,"ha":924,"o":"m 915 0 l 690 0 l 435 450 l 308 297 l 308 0 l 115 0 l 115 989 l 308 989 l 308 558 l 656 989 l 891 989 l 563 595 l 915 0 "},",":{"x_min":94,"x_max":293,"ha":388,"o":"m 293 -75 l 94 -228 l 94 198 l 293 198 l 293 -75 "},"d":{"x_min":71,"x_max":678,"ha":779,"o":"m 678 0 l 502 0 l 502 68 q 322 -8 432 -8 q 144 57 210 -8 q 89 159 108 93 q 71 362 71 225 q 80 527 71 472 q 144 666 95 618 q 320 731 209 731 q 419 716 379 731 q 497 660 460 700 l 497 989 l 678 989 l 678 0 m 497 362 q 476 510 497 465 q 373 570 448 570 q 272 511 299 570 q 252 362 252 467 q 271 213 252 256 q 373 154 297 154 q 476 213 448 154 q 497 362 497 258 "},"¨":{"x_min":116,"x_max":577,"ha":694,"o":"m 577 842 l 423 842 l 423 1015 l 577 1015 l 577 842 m 270 842 l 116 842 l 116 1015 l 270 1015 l 270 842 "},"Ô":{"x_min":82,"x_max":813,"ha":894,"o":"m 813 494 q 801 271 813 330 q 714 100 782 168 q 596 19 660 46 q 447 -8 532 -8 q 298 19 364 -8 q 179 100 233 46 q 93 269 111 168 q 82 494 82 330 q 93 717 82 656 q 179 888 112 822 q 298 969 233 942 q 447 997 362 997 q 594 969 529 997 q 714 888 660 942 q 800 719 781 822 q 813 494 813 654 m 620 494 q 610 687 620 636 q 571 772 600 738 q 447 825 525 825 q 375 811 407 825 q 322 772 344 797 q 284 688 293 740 q 275 494 275 636 q 283 299 275 348 q 322 216 291 250 q 447 164 368 164 q 571 216 525 164 q 609 304 599 248 q 620 494 620 359 m 701 1084 l 561 1083 l 446 1211 l 331 1083 l 190 1084 l 374 1320 l 518 1320 l 701 1084 "},"E":{"x_min":115,"x_max":766.671875,"ha":840,"o":"m 766 0 l 115 0 l 115 989 l 766 989 l 766 817 l 308 817 l 308 585 l 698 585 l 698 413 l 308 413 l 308 172 l 766 172 l 766 0 "},"Y":{"x_min":4,"x_max":790,"ha":794,"o":"m 790 989 l 493 405 l 493 0 l 301 0 l 301 405 l 4 989 l 213 989 l 398 590 l 580 989 l 790 989 "},"\"":{"x_min":94,"x_max":548,"ha":644,"o":"m 548 696 l 380 696 l 380 989 l 548 989 l 548 696 m 263 696 l 94 696 l 94 989 l 263 989 l 263 696 "},"‹":{"x_min":47,"x_max":393.40625,"ha":486,"o":"m 393 37 l 47 381 l 393 726 l 393 510 l 263 381 l 392 252 l 393 37 "},"˙":{"x_min":254,"x_max":440,"ha":694,"o":"m 440 845 l 254 845 l 254 992 l 440 992 l 440 845 "},"ê":{"x_min":65,"x_max":695.546875,"ha":761,"o":"m 695 305 l 243 305 q 284 189 243 233 q 401 145 326 145 q 492 160 456 145 q 565 213 527 175 l 674 106 q 554 19 615 46 q 399 -8 494 -8 q 167 66 251 -8 q 65 362 65 158 q 151 634 65 536 q 380 732 237 732 q 613 633 527 732 q 695 385 695 538 l 695 305 m 518 429 q 502 504 518 466 q 455 561 486 541 q 380 582 424 582 q 305 561 336 582 q 258 504 274 541 q 243 429 243 466 l 518 429 m 639 838 l 499 837 l 384 965 l 269 837 l 128 838 l 312 1074 l 456 1074 l 639 838 "},"Ï":{"x_min":115,"x_max":576,"ha":424,"o":"m 308 0 l 115 0 l 115 989 l 308 989 l 308 0 m 576 1088 l 422 1088 l 422 1261 l 576 1261 l 576 1088 m 269 1088 l 115 1088 l 115 1261 l 269 1261 l 269 1088 "},"„":{"x_min":94,"x_max":575,"ha":674,"o":"m 575 0 l 386 -144 l 386 172 l 575 172 l 575 0 m 282 0 l 94 -144 l 94 172 l 282 172 l 282 0 "},"Â":{"x_min":6.9375,"x_max":879.171875,"ha":886,"o":"m 879 0 l 677 0 l 619 175 l 268 175 l 208 0 l 6 0 l 366 989 l 518 989 l 879 0 m 568 338 l 447 697 l 322 338 l 568 338 m 694 1084 l 554 1083 l 439 1211 l 324 1083 l 183 1084 l 367 1320 l 511 1320 l 694 1084 "},"Í":{"x_min":114.828125,"x_max":394,"ha":424,"o":"m 308 0 l 115 0 l 115 989 l 308 989 l 308 0 m 394 1321 l 235 1084 l 114 1084 l 203 1321 l 394 1321 "},"´":{"x_min":270.828125,"x_max":550,"ha":694,"o":"m 550 1075 l 391 838 l 270 838 l 359 1075 l 550 1075 "},"ì":{"x_min":101,"x_max":380.609375,"ha":382,"o":"m 282 0 l 101 0 l 101 724 l 282 724 l 282 0 m 380 838 l 259 838 l 101 1075 l 291 1075 l 380 838 "},"±":{"x_min":69,"x_max":684,"ha":754,"o":"m 684 474 l 462 474 l 462 250 l 293 250 l 293 474 l 69 474 l 69 642 l 293 642 l 293 865 l 462 865 l 462 642 l 684 642 l 684 474 m 684 0 l 69 0 l 69 169 l 684 169 l 684 0 "},"Ú":{"x_min":100,"x_max":828,"ha":928,"o":"m 828 339 q 724 87 828 183 q 464 -8 621 -8 q 204 87 308 -8 q 100 339 100 183 l 100 989 l 293 989 l 293 345 q 338 212 293 261 q 463 164 384 164 q 589 211 542 164 q 636 345 636 259 l 636 989 l 828 989 l 828 339 m 667 1321 l 508 1084 l 387 1084 l 476 1321 l 667 1321 "},"|":{"x_min":153,"x_max":334,"ha":486,"o":"m 334 -103 l 153 -103 l 153 1092 l 334 1092 l 334 -103 "},"§":{"x_min":84,"x_max":656,"ha":738,"o":"m 656 380 q 613 249 656 310 q 531 173 578 199 q 610 106 584 146 q 643 -19 643 56 q 557 -210 643 -139 q 368 -274 479 -274 q 179 -217 254 -274 q 92 -27 92 -150 l 266 -27 q 294 -89 266 -65 q 368 -114 322 -114 q 442 -90 416 -114 q 469 -25 469 -66 q 449 30 469 6 q 372 77 426 59 l 286 106 q 135 198 182 141 q 84 367 84 260 q 127 498 84 437 q 210 574 161 548 q 135 638 160 601 q 105 756 105 684 q 170 923 105 858 q 371 997 242 997 q 572 927 501 997 q 638 758 638 863 l 469 758 q 442 822 469 801 q 371 843 416 843 q 299 820 324 843 q 274 761 274 798 q 367 669 274 699 l 453 641 q 606 547 557 608 q 656 380 656 487 m 482 373 q 473 428 482 406 q 448 466 464 451 q 414 489 432 481 q 370 497 396 497 q 291 467 320 497 q 266 429 275 452 q 258 373 258 406 q 266 317 258 338 q 291 280 275 295 q 370 251 320 251 q 413 258 393 251 q 448 280 433 266 q 472 317 462 295 q 482 373 482 338 "},"Ý":{"x_min":4,"x_max":790,"ha":794,"o":"m 790 989 l 493 405 l 493 0 l 301 0 l 301 405 l 4 989 l 213 989 l 398 590 l 580 989 l 790 989 m 599 1321 l 440 1084 l 319 1084 l 408 1321 l 599 1321 "},"b":{"x_min":101,"x_max":707,"ha":778,"o":"m 707 362 q 697 197 707 254 q 633 57 681 105 q 456 -8 567 -8 q 355 9 396 -8 q 276 68 313 26 l 276 0 l 101 0 l 101 989 l 282 989 l 282 660 q 358 715 316 698 q 457 731 400 731 q 633 666 568 731 q 688 565 669 630 q 707 362 707 500 m 526 362 q 506 510 526 467 q 404 570 478 570 q 302 511 329 570 q 282 362 282 467 q 301 213 282 256 q 404 154 327 154 q 505 213 477 154 q 526 362 526 259 "},"q":{"x_min":71,"x_max":678,"ha":779,"o":"m 678 -265 l 497 -265 l 497 64 q 419 9 462 26 q 320 -8 377 -8 q 144 56 209 -8 q 89 159 108 93 q 71 362 71 225 q 80 527 71 472 q 144 666 96 618 q 322 732 210 732 q 422 714 381 732 q 502 656 464 697 l 502 723 l 678 723 l 678 -265 m 497 362 q 476 510 497 465 q 373 570 448 570 q 272 511 299 570 q 252 362 252 467 q 271 213 252 256 q 373 154 297 154 q 476 213 448 154 q 497 362 497 258 "},"Ω":{"x_min":82,"x_max":813,"ha":894,"o":"m 813 0 l 508 0 l 508 151 q 583 212 557 173 q 611 299 603 241 q 620 484 620 356 q 610 683 620 629 q 571 770 600 737 q 517 810 549 795 q 447 825 486 825 q 377 810 409 825 q 322 770 344 795 q 284 684 294 738 q 275 484 275 629 q 283 301 275 359 q 311 212 291 243 q 386 151 337 173 l 386 0 l 82 0 l 82 171 l 163 171 q 113 249 132 205 q 88 352 94 293 q 82 494 82 411 q 93 717 82 656 q 179 888 112 822 q 298 969 233 942 q 447 997 362 997 q 594 969 529 997 q 714 888 660 942 q 800 719 781 822 q 813 494 813 654 q 806 354 813 415 q 781 250 800 294 q 730 171 762 205 l 813 171 l 813 0 "},"Ö":{"x_min":82,"x_max":813,"ha":894,"o":"m 813 494 q 801 271 813 330 q 714 100 782 168 q 596 19 660 46 q 447 -8 532 -8 q 298 19 364 -8 q 179 100 233 46 q 93 269 111 168 q 82 494 82 330 q 93 717 82 656 q 179 888 112 822 q 298 969 233 942 q 447 997 362 997 q 594 969 529 997 q 714 888 660 942 q 800 719 781 822 q 813 494 813 654 m 620 494 q 610 687 620 636 q 571 772 600 738 q 447 825 525 825 q 375 811 407 825 q 322 772 344 797 q 284 688 293 740 q 275 494 275 636 q 283 299 275 348 q 322 216 291 250 q 447 164 368 164 q 571 216 525 164 q 609 304 599 248 q 620 494 620 359 m 677 1088 l 523 1088 l 523 1261 l 677 1261 l 677 1088 m 370 1088 l 216 1088 l 216 1261 l 370 1261 l 370 1088 "},"z":{"x_min":50.59375,"x_max":602.78125,"ha":664,"o":"m 602 0 l 51 0 l 50 138 l 371 561 l 69 561 l 69 724 l 602 724 l 602 586 l 277 163 l 602 163 l 602 0 "},"™":{"x_min":62,"x_max":1194,"ha":1283,"o":"m 1194 396 l 1062 396 l 1062 745 l 952 527 l 832 527 l 723 745 l 723 396 l 591 396 l 591 989 l 723 989 l 892 672 l 1062 989 l 1194 989 l 1194 396 m 500 871 l 347 871 l 347 396 l 215 396 l 215 871 l 62 871 l 62 989 l 500 989 l 500 871 "},"ã":{"x_min":50,"x_max":649,"ha":742,"o":"m 649 0 l 473 0 l 473 63 q 396 9 435 25 q 294 -7 357 -7 q 111 56 173 -7 q 50 219 50 119 q 109 367 50 312 q 297 429 174 429 l 468 429 l 468 465 q 436 551 468 524 q 333 579 405 579 q 253 566 280 579 q 194 519 225 553 l 79 631 q 189 710 132 688 q 340 732 246 732 q 649 476 649 732 l 649 0 m 468 266 l 468 305 l 325 305 q 224 223 224 305 q 327 140 224 140 q 394 146 370 140 q 443 176 418 152 q 468 266 468 199 m 612 936 q 531 872 567 891 q 455 854 495 854 q 348 885 403 854 q 270 911 305 911 q 230 904 246 911 q 188 871 215 897 l 110 949 q 191 1013 156 995 q 266 1032 226 1032 q 319 1025 296 1032 q 373 1000 342 1018 q 449 975 415 975 q 489 981 473 975 q 531 1015 505 988 l 612 936 "},"æ":{"x_min":50,"x_max":1098.609375,"ha":1164,"o":"m 1098 305 l 646 305 q 687 189 646 233 q 804 145 729 145 q 895 160 859 145 q 968 213 930 175 l 1077 106 q 957 19 1018 46 q 802 -8 897 -8 q 660 15 725 -8 q 548 93 595 39 q 430 9 491 32 q 294 -8 379 -8 q 112 55 175 -8 q 50 219 50 119 q 109 367 50 312 q 297 429 174 429 l 468 429 l 468 465 q 436 554 468 526 q 333 582 405 582 q 253 568 280 582 q 194 519 225 555 l 79 632 q 189 710 132 688 q 340 732 246 732 q 577 652 504 732 q 783 732 655 732 q 1016 633 930 732 q 1098 385 1098 538 l 1098 305 m 921 429 q 905 504 921 466 q 858 561 889 541 q 783 582 827 582 q 708 561 739 582 q 661 504 677 541 q 646 429 646 466 l 921 429 m 468 266 l 468 305 l 325 305 q 224 223 224 305 q 327 141 224 141 q 394 147 370 141 q 443 176 418 153 q 468 266 468 200 "},"®":{"x_min":83,"x_max":1089,"ha":1172,"o":"m 1089 494 q 941 139 1089 286 q 586 -8 794 -8 q 230 139 377 -8 q 83 494 83 286 q 230 849 83 702 q 586 997 377 997 q 941 849 794 997 q 1089 494 1089 702 m 970 494 q 860 773 970 662 q 586 884 750 884 q 312 772 423 884 q 202 494 202 660 q 311 215 202 326 q 586 105 421 105 q 859 216 748 105 q 970 494 970 328 m 812 229 l 675 228 l 580 435 l 521 435 l 521 229 l 402 229 l 402 763 l 620 763 q 748 713 699 763 q 798 594 798 664 q 770 506 798 541 q 701 452 743 470 l 812 229 m 679 594 q 658 643 679 623 q 604 664 638 664 l 521 664 l 521 525 l 604 525 q 658 545 637 525 q 679 594 679 566 "},"É":{"x_min":115,"x_max":766.671875,"ha":840,"o":"m 766 0 l 115 0 l 115 989 l 766 989 l 766 817 l 308 817 l 308 585 l 698 585 l 698 413 l 308 413 l 308 172 l 766 172 l 766 0 m 632 1321 l 473 1084 l 352 1084 l 441 1321 l 632 1321 "},"~":{"x_min":51.390625,"x_max":790.28125,"ha":842,"o":"m 790 389 q 675 297 726 325 q 561 270 623 270 q 398 317 487 270 q 339 343 363 335 q 284 351 315 351 q 227 339 252 351 q 165 293 201 328 l 51 406 q 166 498 116 471 q 279 526 216 526 q 441 478 352 526 q 500 451 477 458 q 554 445 523 445 q 613 456 587 445 q 675 503 638 467 l 790 389 "},"³":{"x_min":59,"x_max":451,"ha":511,"o":"m 451 572 q 392 434 451 483 q 255 390 339 390 q 120 431 172 390 q 59 573 59 480 l 190 573 q 255 507 190 507 q 320 576 320 507 q 301 624 320 605 q 252 643 282 643 l 234 643 l 234 756 l 252 756 q 297 773 282 756 q 313 815 313 791 q 297 860 313 844 q 255 876 281 876 q 213 860 230 876 q 197 818 197 845 l 66 818 q 120 945 66 896 q 255 994 174 994 q 390 944 337 994 q 444 819 444 895 q 426 747 444 775 q 381 702 409 719 q 428 657 411 683 q 451 572 451 622 "},"¡":{"x_min":104,"x_max":328,"ha":482,"o":"m 311 539 l 121 539 l 121 724 l 311 724 l 311 539 m 328 -265 l 104 -265 l 148 414 l 283 414 l 328 -265 "},"[":{"x_min":111,"x_max":468.0625,"ha":525,"o":"m 468 -103 l 111 -103 l 111 1092 l 468 1092 l 468 929 l 292 929 l 292 60 l 468 60 l 468 -103 "},"L":{"x_min":115,"x_max":756.953125,"ha":799,"o":"m 756 0 l 115 0 l 115 989 l 308 989 l 308 172 l 756 172 l 756 0 "},"ʺ":{"x_min":79.171875,"x_max":645.828125,"ha":694,"o":"m 645 1075 l 486 838 l 366 838 l 454 1075 l 645 1075 m 358 1075 l 200 838 l 79 838 l 166 1075 l 358 1075 "}," ":{"x_min":0,"x_max":0,"ha":322},"%":{"x_min":72,"x_max":1105,"ha":1178,"o":"m 1105 182 q 1047 41 1105 91 q 903 -8 989 -8 q 761 39 815 -8 q 702 182 702 90 l 702 319 q 759 459 702 408 q 903 510 817 510 q 1048 460 991 510 q 1105 319 1105 411 l 1105 182 m 894 988 l 426 0 l 284 0 l 752 988 l 894 988 m 475 669 q 417 528 475 578 q 273 479 359 479 q 131 526 185 479 q 72 669 72 577 l 72 806 q 129 946 72 895 q 273 997 187 997 q 418 947 361 997 q 475 806 475 898 l 475 669 m 974 187 l 974 314 q 903 393 974 393 q 833 314 833 393 l 833 187 q 903 109 833 109 q 974 187 974 109 m 344 674 l 344 801 q 273 880 344 880 q 203 801 203 880 l 203 674 q 273 596 203 596 q 344 674 344 596 "},"P":{"x_min":115,"x_max":825,"ha":872,"o":"m 825 680 q 738 463 825 549 q 498 372 647 372 l 308 372 l 308 0 l 115 0 l 115 989 l 498 989 q 738 898 648 989 q 825 680 825 812 m 632 680 q 593 779 632 741 q 488 817 554 817 l 308 817 l 308 546 l 488 546 q 593 582 554 546 q 632 680 632 618 "},"∏":{"x_min":115,"x_max":836,"ha":951,"o":"m 836 -265 l 643 -265 l 643 885 l 308 885 l 308 -265 l 115 -265 l 115 1056 l 836 1056 l 836 -265 "},"À":{"x_min":6.9375,"x_max":879.171875,"ha":886,"o":"m 879 0 l 677 0 l 619 175 l 268 175 l 208 0 l 6 0 l 366 989 l 518 989 l 879 0 m 568 338 l 447 697 l 322 338 l 568 338 m 516 1084 l 395 1084 l 237 1321 l 427 1321 l 516 1084 "},"_":{"x_min":0,"x_max":836.109375,"ha":836,"o":"m 836 -247 l 0 -247 l 0 -126 l 836 -126 l 836 -247 "},"ñ":{"x_min":101,"x_max":702,"ha":796,"o":"m 702 0 l 521 0 l 521 437 q 483 539 521 505 q 402 569 451 569 q 320 541 351 569 q 282 437 282 506 l 282 0 l 101 0 l 101 723 l 277 723 l 277 656 q 457 732 347 732 q 554 715 510 732 q 628 668 597 698 q 685 577 668 627 q 702 462 702 526 l 702 0 m 653 936 q 572 872 608 891 q 496 854 536 854 q 389 885 444 854 q 311 911 346 911 q 271 904 287 911 q 229 871 256 897 l 151 949 q 232 1013 197 995 q 307 1032 267 1032 q 360 1025 337 1032 q 414 1000 383 1018 q 490 975 456 975 q 530 981 514 975 q 572 1015 546 988 l 653 936 "},"+":{"x_min":69,"x_max":684,"ha":754,"o":"m 684 300 l 462 300 l 462 78 l 293 78 l 293 300 l 69 300 l 69 469 l 293 469 l 293 692 l 462 692 l 462 469 l 684 469 l 684 300 "},"‚":{"x_min":94,"x_max":283,"ha":376,"o":"m 283 0 l 94 -144 l 94 172 l 283 172 l 283 0 "},"½":{"x_min":53,"x_max":1138,"ha":1197,"o":"m 1138 0 l 760 0 l 759 118 l 976 355 q 1009 421 1009 389 q 949 481 1009 481 q 908 467 924 481 q 892 420 892 454 l 760 420 q 813 551 760 503 q 949 599 867 599 q 1084 551 1031 599 q 1138 421 1138 503 q 1110 329 1138 369 q 1065 276 1098 312 l 919 118 l 1138 118 l 1138 0 m 861 989 l 393 0 l 252 0 l 720 989 l 861 989 m 310 395 l 178 395 l 178 842 l 53 733 l 53 880 l 177 989 l 310 989 l 310 395 "},"Æ":{"x_min":4.171875,"x_max":1286.109375,"ha":1360,"o":"m 1286 0 l 636 0 l 636 217 l 323 217 l 211 0 l 4 0 l 520 989 l 1286 989 l 1286 817 l 828 817 l 828 583 l 1219 583 l 1219 411 l 828 411 l 828 172 l 1286 172 l 1286 0 m 636 380 l 636 816 l 406 380 l 636 380 "},"Ë":{"x_min":115,"x_max":766.671875,"ha":840,"o":"m 766 0 l 115 0 l 115 989 l 766 989 l 766 817 l 308 817 l 308 585 l 698 585 l 698 413 l 308 413 l 308 172 l 766 172 l 766 0 m 660 1088 l 506 1088 l 506 1261 l 660 1261 l 660 1088 m 353 1088 l 199 1088 l 199 1261 l 353 1261 l 353 1088 "},"'":{"x_min":94,"x_max":265,"ha":360,"o":"m 265 696 l 94 696 l 94 989 l 265 989 l 265 696 "},"Š":{"x_min":26,"x_max":754,"ha":821,"o":"m 754 291 q 648 69 754 151 q 387 -8 548 -8 q 182 21 269 -8 q 26 122 96 50 l 151 247 q 255 183 195 202 q 389 164 316 164 q 565 286 565 164 q 534 369 565 340 q 499 390 520 381 q 446 404 478 400 l 327 420 q 135 502 201 438 q 65 697 65 573 q 157 914 65 831 q 409 997 249 997 q 589 970 513 997 q 728 881 665 944 l 606 761 q 512 814 565 799 q 403 829 460 829 q 289 794 328 829 q 251 704 251 759 q 257 665 251 681 q 280 633 263 648 q 371 594 313 602 l 488 577 q 677 501 613 559 q 735 411 717 463 q 754 291 754 359 m 662 1320 l 479 1084 l 335 1084 l 151 1320 l 292 1320 l 407 1194 l 522 1320 l 662 1320 "},"ª":{"x_min":66,"x_max":544,"ha":631,"o":"m 544 411 l 401 411 l 401 461 q 339 419 371 432 q 260 406 307 406 q 115 456 164 406 q 66 586 66 507 q 113 704 66 659 q 265 754 166 754 l 401 754 l 401 781 q 375 850 401 828 q 292 872 350 872 q 181 825 223 872 l 88 915 q 177 978 130 961 q 298 996 224 996 q 481 944 419 996 q 544 791 544 893 l 544 411 m 401 623 l 401 655 l 286 655 q 208 590 208 655 q 288 527 208 527 q 342 531 323 527 q 381 554 361 536 q 401 623 401 572 "},"Œ":{"x_min":82,"x_max":1266.734375,"ha":1342,"o":"m 1266 0 l 619 0 l 619 61 q 537 9 587 26 q 441 -8 487 -8 q 179 96 283 -8 q 94 268 113 161 q 82 494 82 336 q 93 720 82 658 q 179 892 112 826 q 441 997 283 997 q 539 980 492 997 q 619 927 585 963 l 619 989 l 1265 989 l 1265 818 l 811 818 l 812 583 l 1198 583 l 1198 414 l 811 414 l 811 171 l 1266 171 l 1266 0 m 619 494 q 609 687 619 636 q 570 772 599 738 q 447 825 524 825 q 375 811 406 825 q 322 772 344 797 q 284 688 293 740 q 275 494 275 636 q 283 299 275 348 q 322 216 291 250 q 447 164 367 164 q 570 216 524 164 q 608 304 598 248 q 619 494 619 359 "},"˛":{"x_min":233.71875,"x_max":462.890625,"ha":694,"o":"m 462 -286 l 294 -286 l 233 -83 l 368 -83 l 462 -286 "},"ð":{"x_min":78,"x_max":675,"ha":754,"o":"m 675 353 q 658 189 675 250 q 594 78 641 128 q 503 16 558 40 q 376 -8 448 -8 q 250 15 302 -8 q 158 77 197 39 q 95 188 112 124 q 78 352 78 251 q 94 514 78 454 q 157 623 111 575 q 282 692 203 672 q 364 704 323 704 q 387 704 379 704 l 340 791 l 182 791 l 182 917 l 276 917 l 233 1000 l 426 1000 l 469 917 l 597 917 l 597 791 l 533 791 l 589 684 q 657 518 640 585 q 675 353 675 451 m 494 353 q 486 468 494 439 q 456 519 478 497 q 376 550 426 550 q 297 519 328 550 q 266 453 274 494 q 259 353 259 412 q 267 238 259 268 q 297 185 276 207 q 376 155 328 155 q 456 185 426 155 q 487 249 480 210 q 494 353 494 288 "},"T":{"x_min":41,"x_max":750,"ha":793,"o":"m 750 817 l 492 817 l 492 0 l 299 0 l 299 817 l 41 817 l 41 989 l 750 989 l 750 817 "},"š":{"x_min":30,"x_max":645,"ha":696,"o":"m 645 227 q 556 50 645 112 q 338 -8 474 -8 q 175 8 234 -8 q 30 96 93 32 l 148 214 q 245 158 187 175 q 341 146 290 146 q 431 164 394 146 q 469 220 469 182 q 451 266 469 248 q 392 287 434 283 l 278 298 q 124 354 176 308 q 68 501 68 404 q 149 670 68 609 q 346 732 230 732 q 506 713 441 732 q 623 647 571 695 l 511 534 q 438 571 484 559 q 344 583 392 583 q 268 562 294 583 q 242 513 242 542 q 254 474 242 488 q 316 451 272 455 l 430 440 q 590 375 535 430 q 645 227 645 320 m 601 1074 l 418 838 l 274 838 l 90 1074 l 231 1074 l 346 948 l 461 1074 l 601 1074 "},"Þ":{"x_min":115,"x_max":825,"ha":879,"o":"m 825 500 q 738 283 825 369 q 498 192 647 192 l 308 192 l 308 0 l 115 0 l 115 989 l 308 989 l 308 807 l 498 807 q 738 716 647 807 q 825 500 825 632 m 632 500 q 593 597 632 559 q 488 635 554 635 l 308 635 l 308 364 l 488 364 q 593 401 554 364 q 632 500 632 439 "},"j":{"x_min":-32,"x_max":282,"ha":382,"o":"m 282 847 l 101 847 l 101 994 l 282 994 l 282 847 m 282 -64 q 233 -205 282 -150 q 70 -271 176 -271 l -32 -271 l -32 -118 l 37 -118 q 101 -52 101 -118 l 101 723 l 282 723 l 282 -64 "},"Σ":{"x_min":54.5625,"x_max":714.28125,"ha":767,"o":"m 714 -265 l 54 -265 l 54 -112 l 317 410 l 58 903 l 58 1056 l 708 1056 l 708 884 l 283 884 l 480 496 l 480 316 l 276 -93 l 714 -93 l 714 -265 "},"1":{"x_min":142.6875,"x_max":525,"ha":754,"o":"m 525 0 l 344 0 l 344 795 l 143 619 l 142 814 l 343 989 l 525 989 l 525 0 "},"›":{"x_min":92.703125,"x_max":438.984375,"ha":486,"o":"m 438 381 l 93 37 l 93 252 l 224 381 l 92 510 l 93 726 l 438 381 "},"ı":{"x_min":101,"x_max":282,"ha":382,"o":"m 282 0 l 101 0 l 101 724 l 282 724 l 282 0 "},"ä":{"x_min":50,"x_max":649,"ha":742,"o":"m 649 0 l 473 0 l 473 63 q 396 9 435 25 q 294 -7 357 -7 q 111 56 173 -7 q 50 219 50 119 q 109 367 50 312 q 297 429 174 429 l 468 429 l 468 465 q 436 551 468 524 q 333 579 405 579 q 253 566 280 579 q 194 519 225 553 l 79 631 q 189 710 132 688 q 340 732 246 732 q 649 476 649 732 l 649 0 m 468 266 l 468 305 l 325 305 q 224 223 224 305 q 327 140 224 140 q 394 146 370 140 q 443 176 418 152 q 468 266 468 199 m 592 842 l 438 842 l 438 1015 l 592 1015 l 592 842 m 285 842 l 131 842 l 131 1015 l 285 1015 l 285 842 "},"<":{"x_min":69.421875,"x_max":1355.5625,"ha":1426,"o":"m 1355 311 l 379 311 l 831 -138 l 604 -137 l 69 395 l 604 931 l 831 931 l 378 482 l 1355 482 l 1355 311 "},"£":{"x_min":54.5625,"x_max":740.734375,"ha":804,"o":"m 740 0 l 139 0 l 139 413 l 54 413 l 54 552 l 139 552 l 139 664 q 244 912 139 819 q 487 997 342 997 q 626 974 569 997 q 740 895 683 952 l 614 769 q 564 809 583 799 q 487 825 535 825 q 373 782 415 825 q 331 655 331 739 l 331 552 l 487 552 l 487 413 l 331 413 l 331 172 l 740 172 l 740 0 "},"¹":{"x_min":53,"x_max":310,"ha":406,"o":"m 310 396 l 178 396 l 178 842 l 53 733 l 53 880 l 177 989 l 310 989 l 310 396 "},"t":{"x_min":40.671875,"x_max":425.390625,"ha":489,"o":"m 425 0 l 326 0 q 167 63 222 0 q 117 206 117 120 l 117 565 l 40 565 l 40 703 l 117 703 l 117 917 l 298 917 l 298 703 l 425 703 l 425 565 l 298 565 l 298 218 q 360 153 298 153 l 425 153 l 425 0 "},"¬":{"x_min":63.890625,"x_max":690,"ha":754,"o":"m 690 131 l 522 131 l 522 332 l 63 332 l 63 500 l 690 500 l 690 131 "},"ù":{"x_min":93,"x_max":694,"ha":796,"o":"m 694 0 l 518 0 l 518 67 q 337 -8 447 -8 q 240 8 284 -8 q 166 55 197 25 q 109 146 126 96 q 93 261 93 197 l 93 724 l 274 724 l 274 286 q 311 184 274 218 q 392 155 343 155 q 474 182 443 155 q 513 286 513 217 l 513 724 l 694 724 l 694 0 m 469 838 l 348 838 l 190 1075 l 380 1075 l 469 838 "},"W":{"x_min":8.328125,"x_max":1223.609375,"ha":1232,"o":"m 1223 989 l 958 0 l 797 0 l 615 600 l 433 0 l 272 0 l 8 989 l 209 989 l 362 365 l 543 989 l 687 989 l 868 365 l 1022 989 l 1223 989 "},"ï":{"x_min":101,"x_max":562,"ha":382,"o":"m 282 0 l 101 0 l 101 724 l 282 724 l 282 0 m 562 842 l 408 842 l 408 1015 l 562 1015 l 562 842 m 255 842 l 101 842 l 101 1015 l 255 1015 l 255 842 "},">":{"x_min":69.4375,"x_max":1356.96875,"ha":1426,"o":"m 1356 395 l 822 -137 l 595 -138 l 1046 311 l 69 311 l 69 482 l 1047 482 l 594 931 l 822 931 l 1356 395 "},"v":{"x_min":4.5625,"x_max":678.171875,"ha":685,"o":"m 678 724 l 412 0 l 271 0 l 4 724 l 194 724 l 342 276 l 487 724 l 678 724 "},"û":{"x_min":93,"x_max":694,"ha":796,"o":"m 694 0 l 518 0 l 518 67 q 337 -8 447 -8 q 240 8 284 -8 q 166 55 197 25 q 109 146 126 96 q 93 261 93 197 l 93 724 l 274 724 l 274 286 q 311 184 274 218 q 392 155 343 155 q 474 182 443 155 q 513 286 513 217 l 513 724 l 694 724 l 694 0 m 647 838 l 507 837 l 392 965 l 277 837 l 136 838 l 320 1074 l 464 1074 l 647 838 "},"Ò":{"x_min":82,"x_max":813,"ha":894,"o":"m 813 494 q 801 271 813 330 q 714 100 782 168 q 596 19 660 46 q 447 -8 532 -8 q 298 19 364 -8 q 179 100 233 46 q 93 269 111 168 q 82 494 82 330 q 93 717 82 656 q 179 888 112 822 q 298 969 233 942 q 447 997 362 997 q 594 969 529 997 q 714 888 660 942 q 800 719 781 822 q 813 494 813 654 m 620 494 q 610 687 620 636 q 571 772 600 738 q 447 825 525 825 q 375 811 407 825 q 322 772 344 797 q 284 688 293 740 q 275 494 275 636 q 283 299 275 348 q 322 216 291 250 q 447 164 368 164 q 571 216 525 164 q 609 304 599 248 q 620 494 620 359 m 523 1084 l 402 1084 l 244 1321 l 434 1321 l 523 1084 "},"&":{"x_min":83,"x_max":966.34375,"ha":1001,"o":"m 966 0 l 737 0 l 665 86 q 538 12 595 32 q 409 -8 481 -8 q 165 70 248 -8 q 83 291 83 148 q 138 450 83 377 q 261 556 180 502 q 196 643 217 605 q 162 766 162 704 q 232 933 162 869 q 426 997 303 997 q 610 932 541 997 q 679 763 679 867 q 652 669 679 711 q 577 591 626 627 l 507 540 l 673 343 q 723 516 723 411 l 894 516 q 789 209 894 327 l 966 0 m 508 762 q 486 820 508 797 q 425 843 464 843 q 363 820 384 843 q 343 762 343 798 q 362 708 343 737 q 408 651 373 691 l 450 678 q 493 717 478 698 q 508 762 508 737 m 556 213 l 358 445 q 285 381 306 409 q 258 294 258 344 q 301 193 258 232 q 408 155 344 155 q 556 213 489 155 "},"Ð":{"x_min":51,"x_max":865,"ha":947,"o":"m 865 494 q 856 275 865 322 q 777 115 841 186 q 657 30 727 61 q 501 0 587 0 l 147 0 l 147 427 l 51 427 l 51 574 l 147 574 l 147 989 l 503 989 q 777 872 674 989 q 855 711 840 801 q 865 494 865 654 m 672 491 q 666 669 672 626 q 635 747 660 712 q 575 799 610 781 q 485 818 540 818 l 340 818 l 340 574 l 501 574 l 501 427 l 340 427 l 340 171 l 485 171 q 640 244 591 171 q 666 316 660 275 q 672 491 672 358 "},"I":{"x_min":115,"x_max":308,"ha":424,"o":"m 308 0 l 115 0 l 115 989 l 308 989 l 308 0 "},"G":{"x_min":82,"x_max":819.515625,"ha":900,"o":"m 819 405 q 797 227 819 297 q 722 102 776 158 q 597 19 668 46 q 445 -8 526 -8 q 299 19 366 -8 q 179 100 232 47 q 93 269 111 168 q 82 494 82 330 q 93 717 82 656 q 179 888 112 822 q 297 969 233 942 q 445 997 362 997 q 708 901 608 997 q 818 681 795 816 l 623 681 q 445 825 588 825 q 322 772 368 825 q 284 688 293 740 q 275 494 275 636 q 283 298 275 348 q 322 215 291 248 q 445 164 366 164 q 583 219 532 164 q 616 279 605 244 q 627 351 627 314 l 627 389 l 446 389 l 446 550 l 819 550 l 819 405 "},"`":{"x_min":144.4375,"x_max":423.609375,"ha":694,"o":"m 423 838 l 302 838 l 144 1075 l 334 1075 l 423 838 "},"·":{"x_min":94,"x_max":301,"ha":396,"o":"m 301 294 l 94 294 l 94 500 l 301 500 l 301 294 "},"r":{"x_min":101,"x_max":630.625,"ha":632,"o":"m 630 663 l 494 526 q 451 558 472 548 q 398 569 430 569 q 316 535 351 569 q 282 435 282 501 l 282 0 l 101 0 l 101 723 l 277 723 l 277 654 q 354 709 304 686 q 459 732 404 732 q 553 716 513 732 q 630 663 593 701 "},"¿":{"x_min":50,"x_max":635,"ha":726,"o":"m 433 539 l 240 539 l 240 724 l 433 724 l 433 539 m 635 5 q 550 -196 635 -119 q 341 -274 466 -274 q 137 -201 219 -274 q 50 3 50 -123 q 69 97 50 51 q 118 177 84 134 l 220 315 q 246 386 246 347 l 246 414 l 427 414 l 427 372 q 415 297 427 329 q 374 227 403 265 l 271 95 q 242 49 254 75 q 231 2 231 23 q 260 -79 231 -47 q 341 -111 289 -111 q 424 -78 394 -111 q 454 5 454 -45 l 635 5 "},"ý":{"x_min":4.5625,"x_max":679.5625,"ha":686,"o":"m 679 724 l 369 -116 q 345 -170 357 -149 q 315 -209 333 -191 q 246 -251 286 -238 q 160 -265 207 -265 l 89 -265 l 89 -102 l 130 -102 q 188 -88 169 -102 q 221 -36 207 -75 l 251 52 l 4 724 l 194 724 l 344 276 l 489 724 l 679 724 m 542 1075 l 383 838 l 262 838 l 351 1075 l 542 1075 "},"x":{"x_min":16,"x_max":715,"ha":732,"o":"m 715 0 l 498 0 l 364 217 l 232 0 l 16 0 l 266 369 l 25 724 l 242 724 l 364 516 l 488 724 l 705 724 l 465 369 l 715 0 "},"è":{"x_min":65,"x_max":695.546875,"ha":761,"o":"m 695 305 l 243 305 q 284 189 243 233 q 401 145 326 145 q 492 160 456 145 q 565 213 527 175 l 674 106 q 554 19 615 46 q 399 -8 494 -8 q 167 66 251 -8 q 65 362 65 158 q 151 634 65 536 q 380 732 237 732 q 613 633 527 732 q 695 385 695 538 l 695 305 m 518 429 q 502 504 518 466 q 455 561 486 541 q 380 582 424 582 q 305 561 336 582 q 258 504 274 541 q 243 429 243 466 l 518 429 m 461 838 l 340 838 l 182 1075 l 372 1075 l 461 838 "},"º":{"x_min":76,"x_max":565,"ha":642,"o":"m 565 700 q 551 566 565 614 q 498 476 538 518 q 424 424 466 443 q 320 406 383 406 q 217 425 260 406 q 142 476 174 444 q 90 567 105 515 q 76 700 76 618 q 89 834 76 784 q 142 925 102 883 q 212 975 174 958 q 320 996 257 996 q 423 976 380 996 q 498 925 466 957 q 550 834 535 884 q 565 700 565 783 m 419 700 q 413 787 419 755 q 387 840 407 819 q 320 865 362 865 q 253 840 278 865 q 228 786 234 820 q 222 700 222 751 q 227 613 222 643 q 255 559 233 582 q 320 537 278 537 q 387 561 362 537 q 412 615 406 581 q 419 700 419 650 "},"Ø":{"x_min":82,"x_max":813,"ha":906,"o":"m 813 494 q 801 271 813 330 q 714 100 782 168 q 596 19 660 46 q 447 -8 532 -8 q 290 22 357 -8 l 250 -61 l 112 -61 l 186 93 l 179 100 q 93 269 111 168 q 82 494 82 330 q 93 717 82 656 q 179 888 112 822 q 297 969 233 942 q 447 997 362 997 q 604 966 537 997 l 644 1050 l 780 1050 l 707 895 l 713 888 q 800 719 780 822 q 813 494 813 654 m 534 802 q 447 825 498 825 q 375 811 407 825 q 322 772 344 797 q 284 688 293 740 q 275 494 275 636 q 287 284 275 336 l 534 802 m 620 494 q 605 704 620 647 l 358 187 q 447 164 397 164 q 571 216 525 164 q 609 304 599 248 q 620 494 620 359 "},"∞":{"x_min":76,"x_max":1106,"ha":1182,"o":"m 1106 394 q 1039 209 1106 280 q 841 133 967 133 q 708 166 769 133 q 590 264 647 199 q 472 166 533 199 q 340 133 412 133 q 145 206 215 133 q 76 394 76 280 q 142 580 76 508 q 340 658 215 658 q 472 624 412 658 q 590 527 533 591 q 708 623 645 589 q 841 658 771 658 q 1036 583 967 658 q 1106 394 1106 508 m 931 390 q 905 457 931 432 q 840 482 879 482 q 773 455 807 482 q 714 391 754 440 q 773 326 752 343 q 840 300 805 300 q 905 324 879 300 q 931 390 931 348 m 468 390 q 406 454 430 434 q 340 482 372 482 q 276 457 302 482 q 251 390 251 433 q 276 324 251 348 q 340 300 302 300 q 406 326 373 300 q 468 390 429 344 "},"÷":{"x_min":64,"x_max":691,"ha":754,"o":"m 469 587 l 288 587 l 288 768 l 469 768 l 469 587 m 691 312 l 64 312 l 64 480 l 691 480 l 691 312 m 469 25 l 288 25 l 288 206 l 469 206 l 469 25 "},"h":{"x_min":101,"x_max":697,"ha":790,"o":"m 697 0 l 516 0 l 516 441 q 478 541 516 507 q 398 569 446 569 q 319 541 349 569 q 282 441 282 507 l 282 0 l 101 0 l 101 989 l 282 989 l 282 656 q 455 732 355 732 q 634 659 572 732 q 697 468 697 587 l 697 0 "},".":{"x_min":94,"x_max":301,"ha":396,"o":"m 301 0 l 94 0 l 94 206 l 301 206 l 301 0 "},";":{"x_min":129,"x_max":334,"ha":429,"o":"m 334 376 l 129 376 l 129 582 l 334 582 l 334 376 m 330 -76 l 133 -228 l 133 197 l 330 197 l 330 -76 "},"f":{"x_min":47.609375,"x_max":436.5,"ha":475,"o":"m 436 565 l 304 565 l 304 0 l 123 0 l 123 565 l 47 565 l 47 703 l 123 703 l 123 793 q 172 934 123 877 q 333 1000 229 1000 l 436 1000 l 436 847 l 366 847 q 304 781 304 847 l 304 703 l 436 703 l 436 565 "},"“":{"x_min":94,"x_max":575,"ha":669,"o":"m 575 818 l 386 818 l 386 989 l 575 1135 l 575 818 m 282 818 l 94 818 l 94 989 l 282 1135 l 282 818 "},"A":{"x_min":6.9375,"x_max":879.171875,"ha":886,"o":"m 879 0 l 677 0 l 619 175 l 268 175 l 208 0 l 6 0 l 366 989 l 518 989 l 879 0 m 568 338 l 447 697 l 322 338 l 568 338 "},"6":{"x_min":66,"x_max":683,"ha":754,"o":"m 683 300 q 596 74 683 157 q 374 -8 509 -8 q 154 71 239 -8 q 66 297 66 154 q 80 398 66 346 q 149 561 95 451 l 357 989 l 554 989 l 349 580 q 385 590 366 587 q 423 593 404 593 q 602 515 527 593 q 683 300 683 432 m 502 299 q 467 404 502 365 q 374 443 432 443 q 282 404 317 443 q 247 299 247 366 q 282 193 247 231 q 374 155 317 155 q 466 193 431 155 q 502 299 502 231 "},"‘":{"x_min":94,"x_max":283,"ha":379,"o":"m 283 818 l 94 818 l 94 989 l 283 1135 l 283 818 "},"π":{"x_min":105,"x_max":715,"ha":822,"o":"m 715 0 l 536 0 l 536 555 l 286 555 l 286 0 l 105 0 l 105 724 l 715 724 l 715 0 "},"O":{"x_min":82,"x_max":813,"ha":894,"o":"m 813 494 q 801 271 813 330 q 714 100 782 168 q 596 19 660 46 q 447 -8 532 -8 q 298 19 364 -8 q 179 100 233 46 q 93 269 111 168 q 82 494 82 330 q 93 717 82 656 q 179 888 112 822 q 298 969 233 942 q 447 997 362 997 q 594 969 529 997 q 714 888 660 942 q 800 719 781 822 q 813 494 813 654 m 620 494 q 610 687 620 636 q 571 772 600 738 q 447 825 525 825 q 375 811 407 825 q 322 772 344 797 q 284 688 293 740 q 275 494 275 636 q 283 299 275 348 q 322 216 291 250 q 447 164 368 164 q 571 216 525 164 q 609 304 599 248 q 620 494 620 359 "},"n":{"x_min":101,"x_max":702,"ha":796,"o":"m 702 0 l 521 0 l 521 437 q 483 539 521 505 q 402 569 451 569 q 320 541 351 569 q 282 437 282 506 l 282 0 l 101 0 l 101 723 l 277 723 l 277 656 q 457 732 347 732 q 554 715 510 732 q 628 668 597 698 q 685 577 668 627 q 702 462 702 526 l 702 0 "},"3":{"x_min":58,"x_max":687,"ha":754,"o":"m 687 286 q 593 65 687 146 q 373 -8 507 -8 q 155 59 239 -8 q 58 283 58 137 l 239 283 q 277 188 239 221 q 373 155 316 155 q 469 190 432 155 q 506 292 506 225 q 469 391 506 354 q 367 428 432 428 l 341 428 l 341 585 l 367 585 q 460 618 429 585 q 492 708 492 652 q 457 800 492 767 q 371 834 422 834 q 284 802 319 834 q 250 715 250 770 l 69 715 q 155 919 69 842 q 371 997 242 997 q 588 917 503 997 q 673 713 673 838 q 642 588 673 637 q 559 511 611 539 q 649 430 618 479 q 687 286 687 371 "},"9":{"x_min":71,"x_max":688,"ha":754,"o":"m 688 691 q 672 588 688 644 q 606 427 657 533 l 396 0 l 200 0 l 405 408 q 369 398 389 401 q 332 396 350 396 q 151 473 226 396 q 71 688 71 557 q 157 914 71 831 q 379 997 244 997 q 601 915 514 997 q 688 691 688 834 m 507 690 q 471 795 507 757 q 379 834 436 834 q 287 795 322 834 q 252 690 252 757 q 286 584 252 623 q 379 546 321 546 q 471 584 436 546 q 507 690 507 622 "},"l":{"x_min":94,"x_max":408.328125,"ha":451,"o":"m 408 0 l 305 0 q 144 63 201 0 q 94 206 94 120 l 94 989 l 275 989 l 275 218 q 338 153 275 153 l 408 153 l 408 0 "},"¤":{"x_min":80,"x_max":846.65625,"ha":929,"o":"m 846 133 l 728 12 l 627 115 q 464 71 551 71 q 302 115 377 71 l 199 12 l 80 132 l 182 234 q 148 311 160 270 q 137 397 137 352 q 148 481 137 440 q 182 560 160 522 l 80 661 l 199 781 l 301 679 q 378 712 335 700 q 462 724 420 724 q 625 679 550 724 l 728 781 l 846 662 l 745 561 q 790 397 790 485 q 745 234 790 310 l 846 133 m 627 397 q 579 513 627 465 q 463 561 532 561 q 348 513 395 561 q 301 397 301 465 q 348 281 301 329 q 463 234 395 234 q 578 281 529 234 q 627 397 627 329 "},"":{"x_min":43,"x_max":736,"ha":836,"o":"m 736 847 l 555 847 l 555 994 l 736 994 l 736 847 m 736 0 l 555 0 l 555 703 l 736 703 l 736 0 m 434 565 l 299 565 l 299 0 l 118 0 l 118 565 l 43 565 l 43 703 l 118 703 l 118 793 q 168 934 118 877 q 330 1000 225 1000 l 434 1000 l 434 847 l 363 847 q 299 781 299 847 l 299 703 l 434 703 l 434 565 "},"∂":{"x_min":78,"x_max":670,"ha":771,"o":"m 670 352 q 653 189 670 250 q 590 78 636 128 q 500 16 554 40 q 374 -8 446 -8 q 248 15 301 -8 q 158 78 196 39 q 95 189 112 126 q 78 353 78 251 q 95 518 78 456 q 158 629 112 581 q 239 688 193 667 q 367 713 295 713 q 435 705 408 713 q 489 672 462 697 l 489 709 q 459 795 489 759 q 344 844 420 844 q 201 789 259 844 l 89 902 q 205 975 143 953 q 351 997 267 997 q 590 905 507 997 q 670 668 670 817 l 670 352 m 489 353 q 487 426 489 414 q 450 518 480 487 q 374 550 421 550 q 296 519 326 550 q 266 454 274 495 q 259 353 259 412 q 260 278 259 292 q 297 186 267 217 q 374 155 326 155 q 451 185 421 155 q 481 251 473 209 q 489 353 489 293 "},"4":{"x_min":43.0625,"x_max":711.109375,"ha":754,"o":"m 711 140 l 621 140 l 621 0 l 447 0 l 447 140 l 43 140 l 43 310 l 381 989 l 579 989 l 240 311 l 447 311 l 447 495 l 621 495 l 621 311 l 711 311 l 711 140 "},"p":{"x_min":101,"x_max":707,"ha":778,"o":"m 707 362 q 697 197 707 254 q 633 56 682 105 q 457 -8 568 -8 q 358 7 398 -8 q 282 64 318 23 l 282 -265 l 101 -265 l 101 723 l 276 723 l 276 656 q 456 732 345 732 q 633 666 567 732 q 688 565 669 630 q 707 362 707 500 m 526 362 q 506 510 526 467 q 404 570 478 570 q 302 511 329 570 q 282 362 282 467 q 301 213 282 256 q 404 154 327 154 q 505 213 477 154 q 526 362 526 259 "},"‡":{"x_min":79,"x_max":725,"ha":804,"o":"m 725 -8 l 492 -8 l 492 -265 l 311 -265 l 311 -8 l 79 -8 l 79 155 l 311 155 l 311 569 l 79 569 l 79 732 l 311 732 l 311 989 l 492 989 l 492 732 l 725 732 l 725 569 l 492 569 l 492 155 l 725 155 l 725 -8 "},"à":{"x_min":50,"x_max":649,"ha":742,"o":"m 649 0 l 473 0 l 473 63 q 396 9 435 25 q 294 -7 357 -7 q 111 56 173 -7 q 50 219 50 119 q 109 367 50 312 q 297 429 174 429 l 468 429 l 468 465 q 436 551 468 524 q 333 579 405 579 q 253 566 280 579 q 194 519 225 553 l 79 631 q 189 710 132 688 q 340 732 246 732 q 649 476 649 732 l 649 0 m 468 266 l 468 305 l 325 305 q 224 223 224 305 q 327 140 224 140 q 394 146 370 140 q 443 176 418 152 q 468 266 468 199 m 438 838 l 317 838 l 159 1075 l 349 1075 l 438 838 "},"Ü":{"x_min":100,"x_max":828,"ha":928,"o":"m 828 339 q 724 87 828 183 q 464 -8 621 -8 q 204 87 308 -8 q 100 339 100 183 l 100 989 l 293 989 l 293 345 q 338 212 293 261 q 463 164 384 164 q 589 211 542 164 q 636 345 636 259 l 636 989 l 828 989 l 828 339 m 694 1088 l 540 1088 l 540 1261 l 694 1261 l 694 1088 m 387 1088 l 233 1088 l 233 1261 l 387 1261 l 387 1088 "},"ó":{"x_min":71,"x_max":684,"ha":754,"o":"m 684 362 q 667 193 684 254 q 601 80 650 132 q 508 16 564 40 q 376 -8 453 -8 q 246 16 301 -8 q 153 80 190 40 q 88 194 105 129 q 71 362 71 258 q 87 530 71 469 q 153 643 104 591 q 240 705 190 683 q 376 732 300 732 q 513 705 451 732 q 601 643 564 683 q 666 529 649 594 q 684 362 684 465 m 503 362 q 496 471 503 433 q 461 537 489 509 q 376 569 429 569 q 293 537 325 569 q 260 470 268 512 q 252 362 252 427 q 261 242 252 275 q 293 186 271 209 q 376 155 325 155 q 461 186 429 155 q 494 254 486 211 q 503 362 503 296 m 581 1075 l 422 838 l 301 838 l 390 1075 l 581 1075 "},"√":{"x_min":4.171875,"x_max":786.109375,"ha":828,"o":"m 786 817 l 658 817 l 388 0 l 243 0 l 4 723 l 200 723 l 316 344 l 515 989 l 786 989 l 786 817 "}}}
